<svg width="225" height="225" viewBox="0 0 225 225" fill="none" xmlns="http://www.w3.org/2000/svg">
<rect width="225" height="225" rx="10" fill="#0B0B0B"/>
<path d="M122.503 82.9013V142.704C122.503 142.804 122.403 142.904 122.303 142.904H65.2C65.1 142.904 65 142.804 65 142.704V82.9013C65 82.8013 65.1 82.7013 65.2 82.7013H122.303C122.503 82.7013 122.503 82.7013 122.503 82.9013Z" stroke="white" stroke-width="13" stroke-miterlimit="10" stroke-linecap="round"/>
<path d="M154.304 110.302C155.404 111.702 155.404 113.702 154.304 115.203L135.403 143.804C135.103 144.304 135.203 144.804 135.303 145.004C135.503 145.504 135.903 145.804 136.403 146.004L145.904 149.204C146.904 149.604 148.004 149.204 148.604 148.404L171.405 113.302C171.694 112.918 171.705 112.441 171.438 112.049C171.417 112.017 171.392 111.989 171.365 111.962V111.962C171.325 111.922 171.29 111.879 171.259 111.832L148.604 76.9008C148.104 76.2008 146.904 75.8008 145.904 76.1008L136.603 79.4009C136.003 79.6009 135.503 80.101 135.403 80.601C135.401 80.6125 135.398 80.6239 135.395 80.6352C135.234 81.31 135.794 81.894 136.173 82.4752L154.304 110.302Z" fill="white"/>
</svg>
