<?xml version="1.0" encoding="UTF-8"?>
<svg width="18px" height="12px" viewBox="0 0 18 12" version="1.1" xmlns="http://www.w3.org/2000/svg" xmlns:xlink="http://www.w3.org/1999/xlink">
    <!-- Generator: Sketch 54.1 (76490) - https://sketchapp.com -->
    <title>Balance</title>
    <desc>Created with Sketch.</desc>
    <defs>
        <path d="M2.20754717,2.20754717 L2.20754717,9.45611321 L9.03192453,9.45611321 L9.03192453,2.20754717 L2.20754717,2.20754717 Z M11.2394717,10.5284717 C11.2394717,11.1538615 10.7296728,11.6636604 10.104283,11.6636604 L1.13518868,11.6636604 C0.510800644,11.6636604 0,11.1546971 0,10.5284717 L0,1.13518868 C0,0.50996872 0.50996872,-4.0940194e-14 1.13518868,-4.0940194e-14 L10.104283,-4.0940194e-14 C10.1731423,0.00110307863 10.1731423,0.00110307863 10.2443363,0.00724183295 C10.474697,0.0328374667 10.6984201,0.113377803 10.912257,0.327214685 C11.1260939,0.541051567 11.2066342,0.764774723 11.2322299,0.995135426 C11.2383686,1.06632944 11.2383686,1.06632944 11.2391806,1.10229794 C11.2393905,1.11860366 11.2394875,4.26066158 11.2394717,10.5284717 Z M15.1308679,5.43922642 L12.1934717,0.931075472 C12.146434,0.883867925 12.146434,0.836830189 12.1620566,0.774 C12.1778491,0.695377358 12.2563019,0.616924528 12.3505472,0.585509434 L13.811434,0.0670754717 C13.9685094,0.0200377358 14.157,0.0828679245 14.2356226,0.192735849 L17.8011509,5.69054717 L17.8169434,5.70616981 C17.8639811,5.769 17.8639811,5.84762264 17.8169434,5.91045283 L14.2356226,11.4238868 C14.1413774,11.5495472 13.9685094,11.6123774 13.811434,11.5495472 L12.3191321,11.0469057 C12.2406792,11.0154906 12.1778491,10.968283 12.146434,10.8898302 C12.1306415,10.8584151 12.1150189,10.7797925 12.1620566,10.7013396 L15.1308679,6.20881132 C15.3037358,5.97328302 15.3037358,5.65913208 15.1308679,5.43922642 Z" id="path-1"></path>
    </defs>
    <g id="UI" stroke="none" stroke-width="1" fill="none" fill-rule="evenodd">
        <g id="Metamask---Running-Apps" transform="translate(-925.000000, -99.000000)">
            <g id="iframe" transform="translate(575.000000, 78.000000)">
                <g id="content" transform="translate(30.000000, 18.000000)">
                    <g id="available-apps">
                        <g id="Balance" transform="translate(320.000000, 0.000000)">
                            <g id="#UI-/-Components-/-Icons-/-Counterfactual">
                                <g transform="translate(0.000000, 3.000000)">
                                    <mask id="mask-2" fill="white">
                                        <use xlink:href="#path-1"></use>
                                    </mask>
                                    <use id="Icon" fill="#5A5858" fill-rule="nonzero" xlink:href="#path-1"></use>
                                    <g id="#UI-/-🎨Color-/-Gray" mask="url(#mask-2)" fill="#707070">
                                        <g transform="translate(-0.679245, -3.905660)" id="Icon-Shade">
                                            <rect x="0" y="0" width="19.3584906" height="19.3584906"></rect>
                                        </g>
                                    </g>
                                </g>
                            </g>
                        </g>
                    </g>
                </g>
            </g>
        </g>
    </g>
</svg>