<?xml version="1.0" encoding="UTF-8"?>
<svg width="18px" height="18px" viewBox="0 0 18 18" version="1.1" xmlns="http://www.w3.org/2000/svg" xmlns:xlink="http://www.w3.org/1999/xlink">
    <!-- Generator: Sketch 54.1 (76490) - https://sketchapp.com -->
    <title>Hub-Blue</title>
    <desc>Created with Sketch.</desc>
    <defs>
        <path d="M8.79058427,11.7590436 L8.15486574,13.4624482 C8.63383411,13.8294963 8.94266529,14.4056908 8.94266529,15.0541992 C8.94266529,16.164295 8.03774408,17.0625 6.92355372,17.0625 C5.80936336,17.0625 4.90444215,16.164295 4.90444215,15.0541992 C4.90444215,13.9441034 5.80936336,13.0458984 6.92355372,13.0458984 C6.98521426,13.0458984 7.04623389,13.0486493 7.1064947,13.0540347 L7.73840437,11.360836 C6.80933625,10.8038645 6.1875,9.78705108 6.1875,8.625 C6.1875,8.57544947 6.18863063,8.52616301 6.19086751,8.47716501 L4.1552972,8.44527744 C3.9222056,9.29888836 3.13743721,9.92578125 2.20661157,9.92578125 C1.09242121,9.92578125 0.1875,9.02757626 0.1875,7.91748047 C0.1875,6.80738468 1.09242121,5.90917969 2.20661157,5.90917969 C3.11185264,5.90917969 3.87895514,6.50208476 4.1348351,7.31981887 L6.45007569,7.35608753 C6.63338263,6.93413497 6.90532167,6.55959498 7.24239479,6.25596555 L6.68111993,4.57214098 C6.65871524,4.57287321 6.63621878,4.57324219 6.61363636,4.57324219 C5.499446,4.57324219 4.59452479,3.67503719 4.59452479,2.56494141 C4.59452479,1.45484562 5.499446,0.556640625 6.61363636,0.556640625 C7.72782673,0.556640625 8.63274793,1.45484562 8.63274793,2.56494141 C8.63274793,3.25489044 8.28318621,3.86298824 7.75108016,4.22445931 L8.22648877,5.65068513 C8.58281945,5.51299814 8.97009296,5.4375 9.375,5.4375 C9.83592735,5.4375 10.2740043,5.53533417 10.6695979,5.7113695 L12.3584026,3.45962984 C12.0771637,3.11462197 11.9085744,2.6749493 11.9085744,2.19580078 C11.9085744,1.08570499 12.8134956,0.1875 13.927686,0.1875 C15.0418763,0.1875 15.9467975,1.08570499 15.9467975,2.19580078 C15.9467975,3.30589657 15.0418763,4.20410156 13.927686,4.20410156 C13.7028217,4.20410156 13.4864812,4.16751704 13.2843828,4.09998965 L11.6014186,6.34394192 C12.1943727,6.92278019 12.5625,7.73089972 12.5625,8.625 C12.5625,8.93768721 12.5174758,9.23985845 12.4335569,9.52538432 L14.5090276,10.5631197 C14.8581801,10.2765477 15.305741,10.1044922 15.7933884,10.1044922 C16.9075788,10.1044922 17.8125,11.0026972 17.8125,12.112793 C17.8125,13.2228888 16.9075788,14.1210937 15.7933884,14.1210937 C14.6791981,14.1210937 13.7742769,13.2228888 13.7742769,12.112793 C13.7742769,11.8994767 13.8076916,11.6939846 13.8695849,11.5011866 L11.9298605,10.5313244 C11.34862,11.3090456 10.4206041,11.8125 9.375,11.8125 C9.17537717,11.8125 8.98004031,11.7941496 8.79058427,11.7590436 Z M13.5699783,3.00560871 C13.6794527,3.05286786 13.8004138,3.07910156 13.927686,3.07910156 C14.4224243,3.07910156 14.8217975,2.68269244 14.8217975,2.19580078 C14.8217975,1.70890912 14.4224243,1.3125 13.927686,1.3125 C13.4329476,1.3125 13.0335744,1.70890912 13.0335744,2.19580078 C13.0335744,2.40750777 13.1090809,2.60210789 13.2351025,2.75445185 L13.5699783,3.00560871 Z M8.48013622,6.76621499 C7.78922145,7.09944697 7.3125,7.80655136 7.3125,8.625 C7.3125,9.7640873 8.2359127,10.6875 9.375,10.6875 C10.5140873,10.6875 11.4375,9.7640873 11.4375,8.625 C11.4375,7.4859127 10.5140873,6.5625 9.375,6.5625 C9.09436395,6.5625 8.82681887,6.61854911 8.58294832,6.72006378 L8.58651247,6.73075624 L8.48013622,6.76621499 Z M3.10037711,7.89268356 C3.08709181,7.41720109 2.69292389,7.03417969 2.20661157,7.03417969 C1.71187322,7.03417969 1.3125,7.43058881 1.3125,7.91748047 C1.3125,8.40437213 1.71187322,8.80078125 2.20661157,8.80078125 C2.68342976,8.80078125 3.07166623,8.4325691 3.09916566,7.97001763 L3.10037711,7.89268356 Z M6.92355372,15.9375 C7.41829207,15.9375 7.81766529,15.5410909 7.81766529,15.0541992 C7.81766529,14.5673076 7.41829207,14.1708984 6.92355372,14.1708984 C6.42881537,14.1708984 6.02944215,14.5673076 6.02944215,15.0541992 C6.02944215,15.5410909 6.42881537,15.9375 6.92355372,15.9375 Z M15.7933884,12.9960937 C16.2881268,12.9960937 16.6875,12.5996846 16.6875,12.112793 C16.6875,11.6259013 16.2881268,11.2294922 15.7933884,11.2294922 C15.2986501,11.2294922 14.8992769,11.6259013 14.8992769,12.112793 C14.8992769,12.5996846 15.2986501,12.9960937 15.7933884,12.9960937 Z M6.61363636,3.44824219 C7.10837471,3.44824219 7.50774793,3.05183306 7.50774793,2.56494141 C7.50774793,2.07804975 7.10837471,1.68164062 6.61363636,1.68164062 C6.11889801,1.68164062 5.71952479,2.07804975 5.71952479,2.56494141 C5.71952479,3.05183306 6.11889801,3.44824219 6.61363636,3.44824219 Z" id="path-1"></path>
    </defs>
    <g id="UI" stroke="none" stroke-width="1" fill="none" fill-rule="evenodd">
        <g id="Metamask---Running-Apps" transform="translate(-628.000000, -271.000000)">
            <g id="iframe" transform="translate(575.000000, 78.000000)">
                <g id="01" transform="translate(20.000000, 163.000000)">
                    <g id="#UI-/-Components-/-Icons-/-Cube-Copy" transform="translate(33.000000, 30.000000)">
                        <g id="Group-2" transform="translate(0.000000, 0.750000)">
                            <g id="#UI-/-🎨Color-/-Dark">
                                <mask id="mask-2" fill="white">
                                    <use xlink:href="#path-1"></use>
                                </mask>
                                <use id="Mask" fill="#979797" fill-rule="nonzero" xlink:href="#path-1"></use>
                                <g id="#UI-/-🎨Color-/-Blue" mask="url(#mask-2)" fill="#2F80ED">
                                    <g transform="translate(-19.500000, -21.000000)" id="Icon-Shade">
                                        <rect x="0" y="0" width="54" height="54"></rect>
                                    </g>
                                </g>
                            </g>
                        </g>
                    </g>
                </g>
            </g>
        </g>
    </g>
</svg>