<?xml version="1.0" encoding="UTF-8"?>
<svg width="16px" height="14px" viewBox="0 0 16 14" version="1.1" xmlns="http://www.w3.org/2000/svg" xmlns:xlink="http://www.w3.org/1999/xlink">
    <!-- Generator: Sketch 54.1 (76490) - https://sketchapp.com -->
    <title>User-Dark</title>
    <desc>Created with Sketch.</desc>
    <defs>
        <path d="M2.26125,9.64145455 L5.5065625,8.18509091 C5.521875,8.17854545 5.535,8.16545455 5.549375,8.15890909 C6.095,8.58436364 6.7684375,8.83636364 7.5,8.83636364 C8.2315625,8.83636364 8.905,8.58436364 9.450625,8.15890909 C9.465,8.16545455 9.478125,8.17854545 9.4934375,8.18509091 L12.7384375,9.64145455 C13.02625,9.76909091 13.2325,10.0374545 13.2903125,10.3614545 L13.620625,12.1909091 L1.379375,12.1909091 L1.7096875,10.3614545 C1.7675,10.0374545 1.97375,9.76909091 2.26125,9.64145455 Z M5.46875,3.43636364 C5.46875,2.26472727 6.38,1.30909091 7.5,1.30909091 C8.62,1.30909091 9.53125,2.26472727 9.53125,3.43636364 L9.53125,5.4 C9.53125,6.57490909 8.62,7.52727273 7.5,7.52727273 C6.38,7.52727273 5.46875,6.57490909 5.46875,5.4 L5.46875,3.43636364 Z M14.8575,13.2578182 C14.8690625,13.2414545 14.881875,13.2283636 14.891875,13.212 C14.904375,13.1956364 14.91375,13.1727273 14.9240625,13.1530909 C14.9325,13.1367273 14.9425,13.1203636 14.9496875,13.104 C14.9565625,13.0876364 14.9603125,13.068 14.965625,13.0516364 C14.973125,13.0287273 14.9815625,13.0058182 14.98625,12.9796364 C14.9890625,12.9665455 14.9890625,12.9534545 14.99125,12.9370909 C14.995,12.9076364 14.999375,12.8814545 14.999375,12.852 C14.999375,12.8487273 15,12.8487273 15,12.8454545 C15,12.8258182 14.9959375,12.8061818 14.994375,12.7865455 C14.9925,12.7669091 14.9928125,12.744 14.9890625,12.7243636 L14.9875,12.7145455 C14.9875,12.7145455 14.9875,12.7145455 14.9871875,12.7145455 L14.51875,10.116 C14.383125,9.36654545 13.901875,8.73818182 13.2309375,8.43709091 L10.3290625,7.13454545 C10.6146875,6.624 10.78125,6.03490909 10.78125,5.4 L10.78125,3.43636364 C10.78125,1.53818182 9.3121875,0 7.5,0 C5.6878125,0 4.21875,1.53818182 4.21875,3.43636364 L4.21875,5.4 C4.21875,6.03490909 4.3853125,6.624 4.6709375,7.13454545 L1.7690625,8.43709091 C1.098125,8.73818182 0.616875,9.36654545 0.48125,10.116 L0.0128125,12.7145455 C0.0125,12.7145455 0.0125,12.7145455 0.0125,12.7145455 L0.0109375,12.7243636 C0.006875,12.744 0.0075,12.7669091 0.005625,12.7865455 C0.0040625,12.8061818 0,12.8258182 0,12.8454545 C0,12.8487273 0.0003125,12.8487273 0.0003125,12.852 C0.000625,12.8814545 0.005,12.9076364 0.00875,12.9370909 C0.0109375,12.9534545 0.0109375,12.9665455 0.0134375,12.9796364 C0.0184375,13.0058182 0.026875,13.0287273 0.034375,13.0516364 C0.0396875,13.068 0.0434375,13.0876364 0.0503125,13.104 C0.0575,13.1203636 0.0675,13.1367273 0.0759375,13.1530909 C0.08625,13.1727273 0.095625,13.1956364 0.108125,13.212 C0.118125,13.2283636 0.1309375,13.2414545 0.1425,13.2578182 C0.15625,13.2741818 0.16875,13.2938182 0.184375,13.3101818 C0.198125,13.3232727 0.214375,13.3363636 0.2290625,13.3494545 C0.245,13.3625455 0.26,13.3789091 0.2771875,13.3887273 C0.29,13.3985455 0.304375,13.4050909 0.3178125,13.4116364 C0.34,13.4247273 0.3615625,13.4410909 0.3853125,13.4509091 C0.39625,13.4541818 0.408125,13.4574545 0.419375,13.4607273 C0.4475,13.4705455 0.4753125,13.4803636 0.5053125,13.4869091 C0.5065625,13.4869091 0.5075,13.4901818 0.50875,13.4901818 C0.544375,13.4967273 0.579375,13.5 0.614375,13.5 C0.618125,13.5 0.62125,13.5 0.625,13.5 L14.375,13.5 C14.37875,13.5 14.381875,13.5 14.385625,13.5 C14.4203125,13.5 14.455625,13.4967273 14.49125,13.4901818 C14.4925,13.4901818 14.4934375,13.4869091 14.4946875,13.4869091 C14.5246875,13.4803636 14.5525,13.4705455 14.580625,13.4607273 C14.591875,13.4574545 14.60375,13.4541818 14.6146875,13.4509091 C14.6384375,13.4410909 14.66,13.4247273 14.6821875,13.4116364 C14.695625,13.4050909 14.71,13.3985455 14.7228125,13.3887273 C14.74,13.3789091 14.755,13.3625455 14.7709375,13.3494545 C14.785625,13.3363636 14.801875,13.3232727 14.815625,13.3101818 C14.83125,13.2938182 14.84375,13.2741818 14.8575,13.2578182 L14.8575,13.2578182 Z" id="path-1"></path>
    </defs>
    <g id="UI" stroke="none" stroke-width="1" fill="none" fill-rule="evenodd">
        <g id="Metamask---Running-Apps" transform="translate(-659.000000, -365.000000)">
            <g id="iframe" transform="translate(575.000000, 78.000000)">
                <g id="01" transform="translate(40.000000, 264.000000)">
                    <g id="#UI-/-Components-/-Icons-/-Account" transform="translate(43.000000, 21.000000)">
                        <g id="#UI-/-Components-/-Icons-/-Counterfactual" transform="translate(1.500000, 2.250000)">
                            <mask id="mask-2" fill="white">
                                <use xlink:href="#path-1"></use>
                            </mask>
                            <use id="Mask" fill="#343532" xlink:href="#path-1"></use>
                            <g id="#UI-/-🎨Color-/-Dark" mask="url(#mask-2)" fill="#101010">
                                <g transform="translate(-2.179245, -3.155660)" id="Icon-Shade">
                                    <rect x="0" y="0" width="19.3584906" height="19.3584906"></rect>
                                </g>
                            </g>
                        </g>
                    </g>
                </g>
            </g>
        </g>
    </g>
</svg>