<?xml version="1.0" encoding="UTF-8"?>
<svg width="18px" height="18px" viewBox="0 0 18 18" version="1.1" xmlns="http://www.w3.org/2000/svg" xmlns:xlink="http://www.w3.org/1999/xlink">
    <!-- Generator: Sketch 54.1 (76490) - https://sketchapp.com -->
    <title>Cube-Dark</title>
    <desc>Created with Sketch.</desc>
    <defs>
        <path d="M7.76746668,15.6017576 L7.76746668,9.75 C7.76746668,9.43933983 8.01930651,9.1875 8.32996668,9.1875 C8.64062685,9.1875 8.89246668,9.43933983 8.89246668,9.75 L8.89246668,15.6152434 L15.1875,12.7304514 L15.1875,6.75640869 C15.1875,6.44574852 15.4393398,6.19390869 15.75,6.19390869 C16.0606602,6.19390869 16.3125,6.44574852 16.3125,6.75640869 L16.3125,13.0914292 C16.3125,13.311383 16.1842967,13.511158 15.9843393,13.6027914 L8.64463591,16.9663188 C8.55482695,17.0270403 8.44653785,17.0625 8.32996668,17.0625 C8.326954,17.0625 8.32394686,17.0624763 8.32094542,17.0624291 C8.23224625,17.0638373 8.14336613,17.0442727 8.06192925,17.0038533 L0.492965826,13.24717 C0.301586088,13.152183 0.180541992,12.9569723 0.180541992,12.7433167 L0.180541992,4.47906755 C0.180541992,4.06759592 0.607865954,3.79536982 0.980780521,3.96927677 L8.32191265,7.39277913 L14.4174245,4.78539466 L8.2867028,1.69510792 L2.59269288,4.00207922 C2.30476707,4.11873455 1.97678924,3.97989238 1.86013392,3.69196657 C1.74347859,3.40404075 1.88232075,3.07606293 2.17024657,2.9594076 L8.10078226,0.556606084 C8.25109294,0.495706572 8.42037441,0.502646786 8.5651955,0.575646132 L16.0031901,4.32488432 C16.4302229,4.54013691 16.4109026,5.15627677 15.9712228,5.34435195 L8.53322816,8.52598984 C8.38615132,8.58890266 8.21924465,8.58621844 8.07426689,8.51860875 L1.30554199,5.3620458 L1.30554199,12.3945278 L7.76746668,15.6017576 Z" id="path-1"></path>
    </defs>
    <g id="UI" stroke="none" stroke-width="1" fill="none" fill-rule="evenodd">
        <g id="Metamask---Running-Apps" transform="translate(-686.000000, -524.000000)">
            <g id="iframe" transform="translate(575.000000, 78.000000)">
                <g id="01" transform="translate(20.000000, 425.000000)">
                    <g id="#UI-/-Components-/-Icons-/-Cube" transform="translate(91.000000, 21.000000)">
                        <g id="#UI-/-🎨Color-/-Dark" transform="translate(0.750000, 0.000000)">
                            <mask id="mask-2" fill="white">
                                <use xlink:href="#path-1"></use>
                            </mask>
                            <use id="Mask" fill="#979797" fill-rule="nonzero" xlink:href="#path-1"></use>
                            <g mask="url(#mask-2)" fill="#101010" id="Icon-Shade">
                                <g transform="translate(-18.750000, -18.750000)">
                                    <rect x="0" y="0" width="54" height="54"></rect>
                                </g>
                            </g>
                        </g>
                    </g>
                </g>
            </g>
        </g>
    </g>
</svg>