<?xml version="1.0" encoding="UTF-8"?>
<svg width="5px" height="24px" viewBox="0 0 5 24" version="1.1" xmlns="http://www.w3.org/2000/svg" xmlns:xlink="http://www.w3.org/1999/xlink">
    <!-- Generator: Sketch 54.1 (76490) - https://sketchapp.com -->
    <title>Dots</title>
    <desc>Created with Sketch.</desc>
    <defs>
        <path d="M2.5,5 C1.11928813,5 0,3.88071187 0,2.5 C0,1.11928813 1.11928813,0 2.5,0 C3.88071187,0 5,1.11928813 5,2.5 C5,3.88071187 3.88071187,5 2.5,5 Z M2.5,14 C1.11928813,14 0,12.8807119 0,11.5 C0,10.1192881 1.11928813,9 2.5,9 C3.88071187,9 5,10.1192881 5,11.5 C5,12.8807119 3.88071187,14 2.5,14 Z M2.5,24 C1.11928813,24 0,22.8807119 0,21.5 C0,20.1192881 1.11928813,19 2.5,19 C3.88071187,19 5,20.1192881 5,21.5 C5,22.8807119 3.88071187,24 2.5,24 Z" id="path-1"></path>
    </defs>
    <g id="UI" stroke="none" stroke-width="1" fill="none" fill-rule="evenodd">
        <g id="Metamask---Running-Apps" transform="translate(-1145.000000, -531.000000)">
            <g id="iframe" transform="translate(575.000000, 78.000000)">
                <g id="01" transform="translate(20.000000, 425.000000)">
                    <g id="#UI-/-Components-/-Icons-/-Dots" transform="translate(540.000000, 28.000000)">
                        <g>
                            <rect id="Rectangle" x="0" y="0" width="24" height="24"></rect>
                            <g id="#UI-/-🎨Color-/-Gray" transform="translate(10.000000, 0.000000)">
                                <mask id="mask-2" fill="white">
                                    <use xlink:href="#path-1"></use>
                                </mask>
                                <use id="Mask" fill="#D8D8D8" xlink:href="#path-1"></use>
                                <g mask="url(#mask-2)" fill="#707070" id="Icon-Shade">
                                    <g transform="translate(-34.000000, -23.000000)">
                                        <rect x="0" y="0" width="72" height="72"></rect>
                                    </g>
                                </g>
                            </g>
                        </g>
                    </g>
                </g>
            </g>
        </g>
    </g>
</svg>