<?xml version="1.0" ?><svg id="Layer_1" style="enable-background:new 0 0 48 48;" version="1.1" viewBox="0 0 48 48" xml:space="preserve" xmlns="http://www.w3.org/2000/svg" xmlns:xlink="http://www.w3.org/1999/xlink"><g><path d="M24,26c6.6,0,12-5.4,12-12S30.6,2,24,2c-6.6,0-12,5.4-12,12S17.4,26,24,26z M24,4c5.5,0,10,4.5,10,10s-4.5,10-10,10   c-5.5,0-10-4.5-10-10S18.5,4,24,4z"/><path d="M33,28H15C7.8,28,2,33.8,2,41v5h2v-5c0-6.1,4.9-11,11-11h18V28z"/><polygon points="46,38 40,38 40,32 38,32 38,38 32,38 32,40 38,40 38,46 40,46 40,40 46,40  "/></g></svg>