<svg width="1152" height="198" viewBox="0 0 1152 198" fill="none" xmlns="http://www.w3.org/2000/svg">
<rect x="1" y="1" width="545" height="196" rx="6" fill="white" stroke="#333333" stroke-width="2" stroke-dasharray="12 7"/>
<rect x="1" y="1" width="568" height="196" rx="6" transform="translate(582)" fill="white" stroke="#333333" stroke-width="2" stroke-dasharray="12 7"/>
<rect x="1" y="1" width="199" height="82" rx="6" transform="translate(22 86)" fill="white" stroke="#606060" stroke-width="2" stroke-linecap="round" stroke-linejoin="round"/>
<path d="M7.728 20.294C5.586 20.294 3.913 19.685 2.709 18.467C1.505 17.249 0.903 15.429 0.903 13.007C0.903 10.627 1.491 8.821 2.667 7.589C3.857 6.343 5.544 5.72 7.728 5.72C9.87 5.72 11.543 6.329 12.747 7.547C13.965 8.751 14.574 10.564 14.574 12.986C14.574 15.366 13.979 17.179 12.789 18.425C11.613 19.671 9.926 20.294 7.728 20.294ZM7.728 17.501C8.834 17.501 9.667 17.151 10.227 16.451C10.787 15.751 11.067 14.596 11.067 12.986C11.067 11.376 10.787 10.228 10.227 9.542C9.681 8.842 8.848 8.492 7.728 8.492C6.622 8.492 5.789 8.842 5.229 9.542C4.683 10.242 4.41 11.404 4.41 13.028C4.41 14.624 4.683 15.772 5.229 16.472C5.789 17.158 6.622 17.501 7.728 17.501ZM29.1964 5.993V20H26.6344L20.1034 11.474V20H16.9744V5.993H19.8724L26.0674 14.33V5.993H29.1964Z" transform="translate(105 116)" fill="black"/>
<rect x="1" y="1" width="199" height="82" rx="6" transform="translate(325 86)" fill="white" stroke="#606060" stroke-width="2" stroke-linecap="round" stroke-linejoin="round"/>
<path d="M1.491 5.993H7.119C9.471 5.993 11.214 6.581 12.348 7.757C13.482 8.919 14.049 10.669 14.049 13.007C14.049 15.331 13.482 17.081 12.348 18.257C11.214 19.419 9.471 20 7.119 20H1.491V5.993ZM6.72 17.375C7.994 17.375 8.953 17.018 9.597 16.304C10.241 15.59 10.563 14.491 10.563 13.007C10.563 11.495 10.241 10.389 9.597 9.689C8.953 8.975 7.994 8.618 6.72 8.618H4.893V17.375H6.72ZM16.4207 5.993H19.8227V20H16.4207V5.993ZM27.5026 20.294C26.4386 20.294 25.5146 20.217 24.7306 20.063C23.9466 19.923 23.2186 19.678 22.5466 19.328V16.094C23.1766 16.598 23.8906 16.99 24.6886 17.27C25.5006 17.536 26.2916 17.669 27.0616 17.669C28.3776 17.669 29.0356 17.172 29.0356 16.178C29.0356 15.744 28.8256 15.408 28.4056 15.17C27.9856 14.918 27.3066 14.638 26.3686 14.33C25.9346 14.19 25.6686 14.099 25.5706 14.057C24.5626 13.721 23.7646 13.266 23.1766 12.692C22.6026 12.118 22.3156 11.264 22.3156 10.13C22.3156 9.332 22.5116 8.597 22.9036 7.925C23.2956 7.239 23.8976 6.693 24.7096 6.287C25.5216 5.881 26.5226 5.678 27.7126 5.678C28.5386 5.678 29.2456 5.755 29.8336 5.909C30.4356 6.049 31.0726 6.28 31.7446 6.602V9.857C31.1566 9.409 30.5266 9.038 29.8546 8.744C29.1826 8.45 28.5036 8.303 27.8176 8.303C27.2016 8.303 26.7046 8.429 26.3266 8.681C25.9626 8.919 25.7806 9.269 25.7806 9.731C25.7806 10.095 25.8926 10.396 26.1166 10.634C26.3406 10.858 26.6136 11.033 26.9356 11.159C27.2716 11.285 27.8036 11.46 28.5316 11.684C29.3996 11.936 30.1136 12.216 30.6736 12.524C31.2336 12.832 31.6816 13.245 32.0176 13.763C32.3536 14.281 32.5216 14.946 32.5216 15.758C32.5216 16.612 32.3256 17.382 31.9336 18.068C31.5416 18.754 30.9606 19.3 30.1906 19.706C29.4346 20.098 28.5386 20.294 27.5026 20.294ZM38.3207 20H34.9187V5.993H41.2187C42.8987 5.993 44.1937 6.371 45.1037 7.127C46.0277 7.883 46.4897 9.024 46.4897 10.55C46.4897 12.104 46.0207 13.301 45.0827 14.141C44.1587 14.981 42.8707 15.401 41.2187 15.401H38.3207V20ZM40.7987 12.776C41.4847 12.776 41.9887 12.601 42.3107 12.251C42.6467 11.887 42.8147 11.397 42.8147 10.781C42.8147 9.353 42.1427 8.639 40.7987 8.639H38.3207V12.776H40.7987ZM55.311 20.441C53.141 20.441 51.524 19.979 50.46 19.055C49.396 18.131 48.864 16.703 48.864 14.771V5.993H52.413V14.624C52.413 15.702 52.63 16.5 53.064 17.018C53.498 17.536 54.191 17.795 55.143 17.795C56.025 17.795 56.704 17.529 57.18 16.997C57.656 16.465 57.894 15.674 57.894 14.624V5.993H61.128V14.771C61.128 16.661 60.603 18.082 59.553 19.034C58.517 19.972 57.103 20.441 55.311 20.441ZM67.0414 8.618H63.1144V5.993H74.4334V8.618H70.4434V20H67.0414V8.618ZM76.4265 5.993H86.0235V8.618H79.8285V11.663H85.2045V14.309H79.8285V17.375H86.0235V20H76.4265V5.993Z" transform="translate(379 116)" fill="black"/>
<rect x="1" y="1" width="199" height="82" rx="6" transform="translate(627 86)" fill="white" stroke="#606060" stroke-width="2" stroke-linecap="round" stroke-linejoin="round"/>
<path d="M11.2991 5.993H16.9271C19.2791 5.993 21.0221 6.581 22.1561 7.757C23.2901 8.919 23.8571 10.669 23.8571 13.007C23.8571 15.331 23.2901 17.081 22.1561 18.257C21.0221 19.419 19.2791 20 16.9271 20H11.2991V5.993ZM16.5281 17.375C17.8021 17.375 18.7611 17.018 19.4051 16.304C20.0491 15.59 20.3711 14.491 20.3711 13.007C20.3711 11.495 20.0491 10.389 19.4051 9.689C18.7611 8.975 17.8021 8.618 16.5281 8.618H14.7011V17.375H16.5281ZM26.2288 5.993H29.6308V20H26.2288V5.993ZM37.3107 20.294C36.2467 20.294 35.3227 20.217 34.5387 20.063C33.7547 19.923 33.0267 19.678 32.3547 19.328V16.094C32.9847 16.598 33.6987 16.99 34.4967 17.27C35.3087 17.536 36.0997 17.669 36.8697 17.669C38.1857 17.669 38.8437 17.172 38.8437 16.178C38.8437 15.744 38.6337 15.408 38.2137 15.17C37.7937 14.918 37.1147 14.638 36.1767 14.33C35.7427 14.19 35.4767 14.099 35.3787 14.057C34.3707 13.721 33.5727 13.266 32.9847 12.692C32.4107 12.118 32.1237 11.264 32.1237 10.13C32.1237 9.332 32.3197 8.597 32.7117 7.925C33.1037 7.239 33.7057 6.693 34.5177 6.287C35.3297 5.881 36.3307 5.678 37.5207 5.678C38.3467 5.678 39.0537 5.755 39.6417 5.909C40.2437 6.049 40.8807 6.28 41.5527 6.602V9.857C40.9647 9.409 40.3347 9.038 39.6627 8.744C38.9907 8.45 38.3117 8.303 37.6257 8.303C37.0097 8.303 36.5127 8.429 36.1347 8.681C35.7707 8.919 35.5887 9.269 35.5887 9.731C35.5887 10.095 35.7007 10.396 35.9247 10.634C36.1487 10.858 36.4217 11.033 36.7437 11.159C37.0797 11.285 37.6117 11.46 38.3397 11.684C39.2077 11.936 39.9217 12.216 40.4817 12.524C41.0417 12.832 41.4897 13.245 41.8257 13.763C42.1617 14.281 42.3297 14.946 42.3297 15.758C42.3297 16.612 42.1337 17.382 41.7417 18.068C41.3497 18.754 40.7687 19.3 39.9987 19.706C39.2427 20.098 38.3467 20.294 37.3107 20.294ZM48.1288 20H44.7268V5.993H51.0268C52.7068 5.993 54.0018 6.371 54.9118 7.127C55.8358 7.883 56.2978 9.024 56.2978 10.55C56.2978 12.104 55.8288 13.301 54.8908 14.141C53.9668 14.981 52.6788 15.401 51.0268 15.401H48.1288V20ZM50.6068 12.776C51.2928 12.776 51.7968 12.601 52.1188 12.251C52.4548 11.887 52.6228 11.397 52.6228 10.781C52.6228 9.353 51.9508 8.639 50.6068 8.639H48.1288V12.776H50.6068ZM65.1192 20.441C62.9492 20.441 61.3322 19.979 60.2682 19.055C59.2042 18.131 58.6722 16.703 58.6722 14.771V5.993H62.2212V14.624C62.2212 15.702 62.4382 16.5 62.8722 17.018C63.3062 17.536 63.9992 17.795 64.9512 17.795C65.8332 17.795 66.5122 17.529 66.9882 16.997C67.4642 16.465 67.7022 15.674 67.7022 14.624V5.993H70.9362V14.771C70.9362 16.661 70.4112 18.082 69.3612 19.034C68.3252 19.972 66.9112 20.441 65.1192 20.441ZM76.8495 8.618H72.9225V5.993H84.2415V8.618H80.2515V20H76.8495V8.618ZM86.2347 5.993H95.8317V8.618H89.6367V11.663H95.0127V14.309H89.6367V17.375H95.8317V20H86.2347V5.993ZM4.30988 47.373C3.72188 46.309 3.18288 45.028 2.69288 43.53C2.21688 42.018 1.97888 40.373 1.97888 38.595C1.97888 36.817 2.21688 35.172 2.69288 33.66C3.18288 32.148 3.72188 30.86 4.30988 29.796H5.90588C5.38788 30.664 4.85588 31.875 4.30988 33.429C3.76388 34.969 3.49088 36.691 3.49088 38.595C3.49088 40.499 3.76388 42.228 4.30988 43.782C4.85588 45.336 5.38788 46.533 5.90588 47.373H4.30988ZM12.2421 45.168C11.4721 45.168 10.8421 44.937 10.3521 44.475C9.86214 43.999 9.61714 43.327 9.61714 42.459V35.907H7.79014V34.521H9.61714V31.56H11.1291V34.521H13.8381V35.907H11.1291V41.976C11.1291 42.592 11.2271 43.04 11.4231 43.32C11.6191 43.6 11.9831 43.74 12.5151 43.74C13.0331 43.74 13.4741 43.656 13.8381 43.488V44.916C13.6421 44.986 13.3901 45.042 13.0821 45.084C12.7881 45.14 12.5081 45.168 12.2421 45.168ZM16.574 30.993H18.254V32.652H16.574V30.993ZM16.658 34.521H18.17V45H16.658V34.521ZM32.644 34.332C34.114 34.332 35.171 34.654 35.815 35.298C36.473 35.942 36.802 36.901 36.802 38.175V45H35.29V38.175C35.29 36.523 34.352 35.697 32.476 35.697C31.58 35.697 30.733 35.935 29.935 36.411C30.117 36.901 30.208 37.489 30.208 38.175V45H28.696V38.175C28.696 36.523 27.758 35.697 25.882 35.697C25.014 35.697 24.097 35.837 23.131 36.117V45H21.619V35.361C22.977 34.675 24.454 34.332 26.05 34.332C27.408 34.332 28.43 34.619 29.116 35.193C30.166 34.619 31.342 34.332 32.644 34.332ZM44.232 34.332C45.828 34.332 46.997 34.85 47.739 35.886C48.481 36.922 48.838 38.301 48.81 40.023H41.166C41.166 41.283 41.46 42.249 42.048 42.921C42.636 43.593 43.476 43.929 44.568 43.929C45.968 43.929 47.165 43.628 48.159 43.026V44.58C47.137 45.07 45.912 45.315 44.484 45.315C42.958 45.315 41.768 44.846 40.914 43.908C40.06 42.956 39.633 41.57 39.633 39.75C39.633 37.972 40.032 36.628 40.83 35.718C41.642 34.794 42.776 34.332 44.232 34.332ZM44.232 35.718C43.308 35.718 42.608 35.935 42.132 36.369C41.656 36.789 41.355 37.545 41.229 38.637H47.214C47.144 37.657 46.864 36.929 46.374 36.453C45.898 35.963 45.184 35.718 44.232 35.718ZM60.2314 30.09V43.194C60.2314 43.908 59.7764 44.44 58.8664 44.79C57.9704 45.14 56.9904 45.315 55.9264 45.315C54.6384 45.315 53.5184 44.902 52.5664 44.076C51.6144 43.236 51.1314 41.752 51.1174 39.624C51.1174 37.972 51.5164 36.684 52.3144 35.76C53.1264 34.822 54.3234 34.353 55.9054 34.353C56.2694 34.353 56.7174 34.416 57.2494 34.542C57.7954 34.654 58.2854 34.794 58.7194 34.962V30.09H60.2314ZM58.7194 36.474C58.2994 36.236 57.8374 36.054 57.3334 35.928C56.8434 35.802 56.3674 35.739 55.9054 35.739C54.8134 35.739 54.0084 36.089 53.4904 36.789C52.9724 37.475 52.7134 38.42 52.7134 39.624C52.7134 40.94 52.9514 41.99 53.4274 42.774C53.9034 43.544 54.7644 43.929 56.0104 43.929C56.7524 43.929 57.3894 43.845 57.9214 43.677C58.4534 43.509 58.7194 43.299 58.7194 43.047V36.474ZM73.9943 45.315C72.3843 45.315 71.1733 44.839 70.3613 43.887C69.5633 42.935 69.1643 41.57 69.1643 39.792C69.1643 37.986 69.5703 36.628 70.3823 35.718C71.2083 34.794 72.3983 34.332 73.9523 34.332C75.5903 34.332 76.8083 34.822 77.6063 35.802C78.4043 36.768 78.8033 38.098 78.8033 39.792C78.8033 41.528 78.3833 42.886 77.5433 43.866C76.7033 44.832 75.5203 45.315 73.9943 45.315ZM73.9733 43.929C76.1853 43.929 77.2913 42.55 77.2913 39.792C77.2913 38.476 77.0323 37.468 76.5143 36.768C75.9963 36.068 75.1493 35.718 73.9733 35.718C71.7753 35.718 70.6763 37.076 70.6763 39.792C70.6763 42.55 71.7753 43.929 73.9733 43.929ZM86.0343 45.315C84.6343 45.315 83.5493 44.958 82.7793 44.244C82.0233 43.516 81.6453 42.487 81.6453 41.157V34.521H83.1573V40.821C83.1573 41.885 83.3883 42.669 83.8503 43.173C84.3123 43.663 85.0403 43.908 86.0343 43.908C87.0143 43.908 87.7353 43.663 88.1973 43.173C88.6733 42.669 88.9113 41.885 88.9113 40.821V34.521H90.4233V41.157C90.4233 42.487 90.0383 43.516 89.2683 44.244C88.5123 44.958 87.4343 45.315 86.0343 45.315ZM97.083 45.168C96.313 45.168 95.683 44.937 95.193 44.475C94.703 43.999 94.458 43.327 94.458 42.459V35.907H92.631V34.521H94.458V31.56H95.97V34.521H98.679V35.907H95.97V41.976C95.97 42.592 96.068 43.04 96.264 43.32C96.46 43.6 96.824 43.74 97.356 43.74C97.874 43.74 98.315 43.656 98.679 43.488V44.916C98.483 44.986 98.231 45.042 97.923 45.084C97.629 45.14 97.349 45.168 97.083 45.168ZM101.1 47.373C101.632 46.491 102.171 45.28 102.717 43.74C103.263 42.2 103.536 40.478 103.536 38.574C103.536 36.684 103.256 34.962 102.696 33.408C102.15 31.84 101.618 30.636 101.1 29.796H102.717C103.305 30.86 103.837 32.148 104.313 33.66C104.803 35.158 105.048 36.796 105.048 38.574C105.048 40.352 104.803 41.997 104.313 43.509C103.837 45.021 103.305 46.309 102.717 47.373H101.1Z" transform="translate(671 104)" fill="black"/>
<path d="M97.0607 1.06066C97.6464 0.474874 97.6464 -0.474874 97.0607 -1.06066L87.5147 -10.6066C86.9289 -11.1924 85.9792 -11.1924 85.3934 -10.6066C84.8076 -10.0208 84.8076 -9.07107 85.3934 -8.48528L93.8787 0L85.3934 8.48528C84.8076 9.07107 84.8076 10.0208 85.3934 10.6066C85.9792 11.1924 86.9289 11.1924 87.5147 10.6066L97.0607 1.06066ZM0 1.5H96V-1.5H0V1.5Z" transform="translate(223 128)" fill="#606060"/>
<path d="M8.096 21.308C5.852 21.308 4.09933 20.67 2.838 19.394C1.57667 18.118 0.946 16.2113 0.946 13.674C0.946 11.1807 1.562 9.28867 2.794 7.998C4.04067 6.69267 5.808 6.04 8.096 6.04C10.34 6.04 12.0927 6.678 13.354 7.954C14.63 9.21533 15.268 11.1147 15.268 13.652C15.268 16.1453 14.6447 18.0447 13.398 19.35C12.166 20.6553 10.3987 21.308 8.096 21.308ZM8.096 18.382C9.25467 18.382 10.1273 18.0153 10.714 17.282C11.3007 16.5487 11.594 15.3387 11.594 13.652C11.594 11.9653 11.3007 10.7627 10.714 10.044C10.142 9.31067 9.26933 8.944 8.096 8.944C6.93733 8.944 6.06467 9.31067 5.478 10.044C4.906 10.7773 4.62 11.9947 4.62 13.696C4.62 15.368 4.906 16.5707 5.478 17.304C6.06467 18.0227 6.93733 18.382 8.096 18.382ZM21.3467 21H17.7827V6.326H24.3827C26.1427 6.326 27.4994 6.722 28.4527 7.514C29.4207 8.306 29.9047 9.50133 29.9047 11.1C29.9047 12.728 29.4134 13.982 28.4307 14.862C27.4627 15.742 26.1134 16.182 24.3827 16.182H21.3467V21ZM23.9427 13.432C24.6614 13.432 25.1894 13.2487 25.5267 12.882C25.8787 12.5007 26.0547 11.9873 26.0547 11.342C26.0547 9.846 25.3507 9.098 23.9427 9.098H21.3467V13.432H23.9427ZM32.3921 6.326H42.4461V9.076H35.9561V12.266H41.5881V15.038H35.9561V18.25H42.4461V21H32.3921V6.326ZM58.2371 6.326V21H55.5531L48.7111 12.068V21H45.4331V6.326H48.4691L54.9591 15.06V6.326H58.2371Z" transform="translate(241 22)" fill="black"/>
<path d="M8.052 21.286C3.24133 21.286 0.836 18.7487 0.836 13.674C0.836 8.55533 3.24133 5.996 8.052 5.996C9.53333 5.996 11.088 6.35533 12.716 7.074V10.176C11.308 9.23733 9.91467 8.768 8.536 8.768C7.18667 8.768 6.17467 9.14933 5.5 9.912C4.84 10.66 4.51 11.914 4.51 13.674C4.51 15.434 4.84733 16.6807 5.522 17.414C6.21133 18.1473 7.26733 18.514 8.69 18.514C9.27667 18.514 9.91467 18.404 10.604 18.184C11.2933 17.964 11.9973 17.6193 12.716 17.15V20.252C12.1147 20.56 11.3813 20.8093 10.516 21C9.65067 21.1907 8.82933 21.286 8.052 21.286ZM15.4194 6.326H18.9834V18.206H25.3634V21H15.4194V6.326ZM34.1565 21.308C31.9125 21.308 30.1599 20.67 28.8985 19.394C27.6372 18.118 27.0065 16.2113 27.0065 13.674C27.0065 11.1807 27.6225 9.28867 28.8545 7.998C30.1012 6.69267 31.8685 6.04 34.1565 6.04C36.4005 6.04 38.1532 6.678 39.4145 7.954C40.6905 9.21533 41.3285 11.1147 41.3285 13.652C41.3285 16.1453 40.7052 18.0447 39.4585 19.35C38.2265 20.6553 36.4592 21.308 34.1565 21.308ZM34.1565 18.382C35.3152 18.382 36.1879 18.0153 36.7745 17.282C37.3612 16.5487 37.6545 15.3387 37.6545 13.652C37.6545 11.9653 37.3612 10.7627 36.7745 10.044C36.2025 9.31067 35.3299 8.944 34.1565 8.944C32.9979 8.944 32.1252 9.31067 31.5385 10.044C30.9665 10.7773 30.6805 11.9947 30.6805 13.696C30.6805 15.368 30.9665 16.5707 31.5385 17.304C32.1252 18.0227 32.9979 18.382 34.1565 18.382ZM48.7713 21.308C47.6566 21.308 46.6886 21.2273 45.8673 21.066C45.0459 20.9193 44.2833 20.6627 43.5793 20.296V16.908C44.2393 17.436 44.9873 17.8467 45.8233 18.14C46.6739 18.4187 47.5026 18.558 48.3093 18.558C49.6879 18.558 50.3773 18.0373 50.3773 16.996C50.3773 16.5413 50.1573 16.1893 49.7173 15.94C49.2773 15.676 48.5659 15.3827 47.5833 15.06C47.1286 14.9133 46.8499 14.818 46.7473 14.774C45.6913 14.422 44.8553 13.9453 44.2393 13.344C43.6379 12.7427 43.3373 11.848 43.3373 10.66C43.3373 9.824 43.5426 9.054 43.9533 8.35C44.3639 7.63133 44.9946 7.05933 45.8453 6.634C46.6959 6.20867 47.7446 5.996 48.9913 5.996C49.8566 5.996 50.5973 6.07667 51.2133 6.238C51.8439 6.38467 52.5113 6.62667 53.2153 6.964V10.374C52.5993 9.90467 51.9393 9.516 51.2353 9.208C50.5313 8.9 49.8199 8.746 49.1013 8.746C48.4559 8.746 47.9353 8.878 47.5393 9.142C47.1579 9.39133 46.9673 9.758 46.9673 10.242C46.9673 10.6233 47.0846 10.9387 47.3193 11.188C47.5539 11.4227 47.8399 11.606 48.1773 11.738C48.5293 11.87 49.0866 12.0533 49.8493 12.288C50.7586 12.552 51.5066 12.8453 52.0933 13.168C52.6799 13.4907 53.1493 13.9233 53.5013 14.466C53.8533 15.0087 54.0293 15.7053 54.0293 16.556C54.0293 17.4507 53.8239 18.2573 53.4133 18.976C53.0026 19.6947 52.3939 20.2667 51.5873 20.692C50.7953 21.1027 49.8566 21.308 48.7713 21.308ZM56.5405 6.326H66.5945V9.076H60.1045V12.266H65.7365V15.038H60.1045V18.25H66.5945V21H56.5405V6.326ZM69.5815 6.326H75.4775C77.9415 6.326 79.7675 6.942 80.9555 8.174C82.1435 9.39133 82.7375 11.2247 82.7375 13.674C82.7375 16.1087 82.1435 17.942 80.9555 19.174C79.7675 20.3913 77.9415 21 75.4775 21H69.5815V6.326ZM75.0595 18.25C76.3942 18.25 77.3989 17.876 78.0735 17.128C78.7482 16.38 79.0855 15.2287 79.0855 13.674C79.0855 12.09 78.7482 10.9313 78.0735 10.198C77.3989 9.45 76.3942 9.076 75.0595 9.076H73.1455V18.25H75.0595Z" transform="translate(822 22)" fill="black"/>
<path d="M97.0607 1.06066C97.6464 0.474874 97.6464 -0.474874 97.0607 -1.06066L87.5147 -10.6066C86.9289 -11.1924 85.9792 -11.1924 85.3934 -10.6066C84.8076 -10.0208 84.8076 -9.07107 85.3934 -8.48528L93.8787 0L85.3934 8.48528C84.8076 9.07107 84.8076 10.0208 85.3934 10.6066C85.9792 11.1924 86.9289 11.1924 87.5147 10.6066L97.0607 1.06066ZM0 1.5H96V-1.5H0V1.5Z" transform="translate(526 128)" fill="#606060"/>
<rect x="1" y="1" width="199" height="82" rx="6" transform="translate(929 86)" fill="white" stroke="#606060" stroke-width="2" stroke-linecap="round" stroke-linejoin="round"/>
<path d="M97.0607 1.06066C97.6464 0.474874 97.6464 -0.474874 97.0607 -1.06066L87.5147 -10.6066C86.9289 -11.1924 85.9792 -11.1924 85.3934 -10.6066C84.8076 -10.0208 84.8076 -9.07107 85.3934 -8.48528L93.8787 0L85.3934 8.48528C84.8076 9.07107 84.8076 10.0208 85.3934 10.6066C85.9792 11.1924 86.9289 11.1924 87.5147 10.6066L97.0607 1.06066ZM0 1.5H96V-1.5H0V1.5Z" transform="translate(827 128)" fill="#606060"/>
<path d="M7.728 20.294C5.586 20.294 3.913 19.685 2.709 18.467C1.505 17.249 0.903 15.429 0.903 13.007C0.903 10.627 1.491 8.821 2.667 7.589C3.857 6.343 5.544 5.72 7.728 5.72C9.87 5.72 11.543 6.329 12.747 7.547C13.965 8.751 14.574 10.564 14.574 12.986C14.574 15.366 13.979 17.179 12.789 18.425C11.613 19.671 9.926 20.294 7.728 20.294ZM7.728 17.501C8.834 17.501 9.667 17.151 10.227 16.451C10.787 15.751 11.067 14.596 11.067 12.986C11.067 11.376 10.787 10.228 10.227 9.542C9.681 8.842 8.848 8.492 7.728 8.492C6.622 8.492 5.789 8.842 5.229 9.542C4.683 10.242 4.41 11.404 4.41 13.028C4.41 14.624 4.683 15.772 5.229 16.472C5.789 17.158 6.622 17.501 7.728 17.501ZM16.9744 5.993H26.5084V8.618H20.3764V11.957H25.6684V14.624H20.3764V20H16.9744V5.993ZM28.951 5.993H38.485V8.618H32.353V11.957H37.645V14.624H32.353V20H28.951V5.993Z" transform="translate(1010 116)" fill="black"/>
</svg>
