<?xml version="1.0" encoding="UTF-8"?>
<svg width="132px" height="135px" viewBox="0 0 132 135" version="1.1" xmlns="http://www.w3.org/2000/svg" xmlns:xlink="http://www.w3.org/1999/xlink">
    <!-- Generator: Sketch 51.3 (57544) - http://www.bohemiancoding.com/sketch -->
    <title>Logo</title>
    <desc>Created with Sketch.</desc>
    <defs></defs>
    <g id="UI" stroke="none" stroke-width="1" fill="none" fill-rule="evenodd">
        <g id="Welcome" transform="translate(-93.000000, -217.000000)">
            <g id="Logo" transform="translate(83.000000, 208.000000)">
                <polygon id="Fill-3" fill="#4DCDEF" points="10.5979437 16.7093239 40.3289683 16.7093239 40.3289683 10.5979437 10.5979437 10.5979437"></polygon>
                <polygon id="Fill-4" fill="#4DCDEF" points="22.4080352 40.3289683 28.5194155 40.3289683 28.5194155 22.4080352 22.4080352 22.4080352"></polygon>
                <polygon id="Fill-5" fill="#FFFFFF" points="73.3349472 40.3289683 79.4463275 40.3289683 79.4463275 10.5979437 73.3349472 10.5979437"></polygon>
                <polygon id="Fill-13" fill="#4DCDEF" points="10.5979437 67.6367746 40.3289683 67.6367746 40.3289683 61.5253944 10.5979437 61.5253944"></polygon>
                <polygon id="Fill-14" fill="#4DCDEF" points="22.4080352 91.256419 28.5194155 91.256419 28.5194155 73.3349472 22.4080352 73.3349472"></polygon>
                <polygon id="Fill-15" fill="#4DCDEF" points="10.5979437 118.564225 40.3289683 118.564225 40.3289683 112.452845 10.5979437 112.452845"></polygon>
                <polygon id="Fill-16" fill="#4DCDEF" points="22.4080352 142.18387 28.5194155 142.18387 28.5194155 124.262398 22.4080352 124.262398"></polygon>
                <polygon id="Fill-17" fill="#FFFFFF" points="129.514931 130.373617 113.47148 130.373617 113.47148 112.452683 141.165019 112.452683 141.165019 118.564064 119.582322 118.564064 119.582322 124.262236 129.514931 124.262236"></polygon>
                <polygon id="Fill-18" fill="#FFFFFF" points="113.471588 142.18387 141.165127 142.18387 141.165127 136.072489 113.471588 136.072489"></polygon>
                <g id="Group-27" transform="translate(59.260563, 9.478996)" fill="#FFFFFF">
                    <path d="M69.921862,31.7722817 C65.7052035,31.7722817 61.7401331,30.1302254 58.7582493,27.1483415 C52.6037704,20.9927852 52.6037704,10.9766725 58.7582493,4.82165493 C61.7401331,1.83923239 65.7052035,0.197176056 69.921862,0.197176056 C74.1390592,0.197176056 78.1041296,1.83923239 81.0854746,4.8211162 L76.7637634,9.14282746 C74.9369218,7.31490845 72.5067,6.30855634 69.921862,6.30855634 C67.3375627,6.30855634 64.9073408,7.31490845 63.0799606,9.14282746 C59.3077563,12.9155704 59.3072176,19.0544261 63.0799606,22.8266303 C64.9073408,24.6545493 67.3375627,25.6609014 69.921862,25.6609014 C72.5067,25.6609014 74.9363831,24.6545493 76.7637634,22.827169 L81.0854746,27.1478028 C78.1041296,30.1296866 74.1390592,31.7722817 69.921862,31.7722817" id="Fill-19"></path>
                    <path d="M69.921862,82.6993553 C65.7052035,82.6993553 61.7401331,81.0572989 58.7582493,78.0754151 C52.6037704,71.9193201 52.6037704,61.9037461 58.7582493,55.7487285 C61.7401331,52.766306 65.7052035,51.1242496 69.921862,51.1242496 C74.1390592,51.1242496 78.1041296,52.7668447 81.0854746,55.7487285 L76.7637634,60.0699011 C74.9363831,58.2425208 72.5067,57.2356299 69.921862,57.2356299 C67.3375627,57.2356299 64.9073408,58.2425208 63.0799606,60.0699011 C59.3072176,63.842644 59.3077563,69.9814996 63.0799606,73.7542426 C64.9073408,75.5816229 67.3375627,76.587975 69.921862,76.587975 C72.5067,76.587975 74.9363831,75.5816229 76.7637634,73.7542426 L81.0854746,78.0754151 C78.1041296,81.0572989 74.1390592,82.6993553 69.921862,82.6993553" id="Fill-21"></path>
                    <path d="M17.1302894,108.126555 C11.7747507,108.126555 7.41802183,112.483283 7.41802183,117.838822 C7.41802183,123.1949 11.7747507,127.551629 17.1302894,127.551629 C22.4858282,127.551629 26.842557,123.1949 26.842557,117.838822 C26.842557,112.483283 22.4858282,108.126555 17.1302894,108.126555 M17.1302894,133.59028 C8.44484577,133.59028 1.37937042,126.523727 1.37937042,117.838822 C1.37937042,109.153917 8.44484577,102.087903 17.1302894,102.087903 C25.8151944,102.087903 32.8812085,109.153917 32.8812085,117.838822 C32.8812085,126.523727 25.8151944,133.59028 17.1302894,133.59028" id="Fill-23"></path>
                    <polygon id="Fill-25" points="17.1836778 60.0404863 27.6970405 81.5585356 34.498537 81.5585356 20.1876496 52.2665778 14.0848891 52.2665778 0.317044014 81.5585356 7.07005458 81.5585356"></polygon>
                </g>
            </g>
        </g>
    </g>
</svg>