<svg width="1152" height="198" viewBox="0 0 1152 198" fill="none" xmlns="http://www.w3.org/2000/svg">
<rect x="1" y="1" width="545" height="196" rx="6" fill="white" stroke="#333333" stroke-width="2" stroke-dasharray="12 7"/>
<rect x="583" y="1" width="568" height="196" rx="6" fill="white" stroke="#333333" stroke-width="2" stroke-dasharray="12 7"/>
<rect x="23" y="87" width="199" height="82" rx="6" fill="white" stroke="#606060" stroke-width="2" stroke-linecap="round" stroke-linejoin="round"/>
<path d="M54.7047 121.993V136H52.1427L45.6117 127.474V136H42.4827V121.993H45.3807L51.5757 130.33V121.993H54.7047ZM63.916 136.294C61.774 136.294 60.101 135.685 58.897 134.467C57.693 133.249 57.091 131.429 57.091 129.007C57.091 126.627 57.679 124.821 58.855 123.589C60.045 122.343 61.732 121.72 63.916 121.72C66.058 121.72 67.731 122.329 68.935 123.547C70.153 124.751 70.762 126.564 70.762 128.986C70.762 131.366 70.167 133.179 68.977 134.425C67.801 135.671 66.114 136.294 63.916 136.294ZM63.916 133.501C65.022 133.501 65.855 133.151 66.415 132.451C66.975 131.751 67.255 130.596 67.255 128.986C67.255 127.376 66.975 126.228 66.415 125.542C65.869 124.842 65.036 124.492 63.916 124.492C62.81 124.492 61.977 124.842 61.417 125.542C60.871 126.242 60.598 127.404 60.598 129.028C60.598 130.624 60.871 131.772 61.417 132.472C61.977 133.158 62.81 133.501 63.916 133.501ZM71.6714 136.504H83.1374V138.289H71.6714V136.504ZM90.8213 136.273C86.2293 136.273 83.9333 133.851 83.9333 129.007C83.9333 124.121 86.2293 121.678 90.8213 121.678C92.2353 121.678 93.7193 122.021 95.2733 122.707V125.668C93.9293 124.772 92.5993 124.324 91.2833 124.324C89.9953 124.324 89.0293 124.688 88.3853 125.416C87.7553 126.13 87.4403 127.327 87.4403 129.007C87.4403 130.687 87.7623 131.877 88.4063 132.577C89.0643 133.277 90.0723 133.627 91.4303 133.627C91.9903 133.627 92.5993 133.522 93.2573 133.312C93.9153 133.102 94.5873 132.773 95.2733 132.325V135.286C94.6993 135.58 93.9993 135.818 93.1733 136C92.3473 136.182 91.5633 136.273 90.8213 136.273ZM97.8538 121.993H101.256V127.663H106.401V121.993H109.782V136H106.401V130.435H101.256V136H97.8538V121.993ZM120.995 132.976H115.766L114.758 136H111.545L116.837 121.993H120.554L125.51 136H122.024L120.995 132.976ZM120.155 130.477L118.37 125.185L116.606 130.477H120.155ZM127.283 121.993H130.685V133.333H136.775V136H127.283V121.993ZM138.931 121.993H142.333V133.333H148.423V136H138.931V121.993ZM150.579 121.993H160.176V124.618H153.981V127.663H159.357V130.309H153.981V133.375H160.176V136H150.579V121.993ZM175.25 121.993V136H172.688L166.157 127.474V136H163.028V121.993H165.926L172.121 130.33V121.993H175.25ZM184.461 136.294C182.291 136.294 180.611 135.706 179.421 134.53C178.231 133.354 177.636 131.513 177.636 129.007C177.636 126.529 178.238 124.688 179.442 123.484C180.646 122.28 182.319 121.678 184.461 121.678C186.155 121.678 187.821 122.021 189.459 122.707V125.794C188.507 125.29 187.681 124.919 186.981 124.681C186.295 124.443 185.595 124.324 184.881 124.324C183.607 124.324 182.655 124.681 182.025 125.395C181.409 126.095 181.101 127.292 181.101 128.986C181.101 130.652 181.416 131.849 182.046 132.577C182.676 133.291 183.572 133.648 184.734 133.648C185.56 133.648 186.204 133.536 186.666 133.312V130.834H184.356V128.188H190.068V134.782C188.248 135.79 186.379 136.294 184.461 136.294ZM193.051 121.993H202.648V124.618H196.453V127.663H201.829V130.309H196.453V133.375H202.648V136H193.051V121.993Z" fill="black"/>
<rect x="326" y="87" width="199" height="82" rx="6" fill="white" stroke="#606060" stroke-width="2" stroke-linecap="round" stroke-linejoin="round"/>
<path d="M336.193 121.993H345.727V124.618H339.595V127.957H344.887V130.624H339.595V136H336.193V121.993ZM348.169 121.993H351.571V136H348.169V121.993ZM366.769 121.993V136H364.207L357.676 127.474V136H354.547V121.993H357.445L363.64 130.33V121.993H366.769ZM377.975 132.976H372.746L371.738 136H368.525L373.817 121.993H377.534L382.49 136H379.004L377.975 132.976ZM377.135 130.477L375.35 125.185L373.586 130.477H377.135ZM384.263 121.993H387.665V133.333H393.755V136H384.263V121.993ZM395.911 121.993H399.313V136H395.911V121.993ZM412.936 124.429L406.216 133.354H412.936V136H401.932V133.522L408.82 124.66H402.037V121.993H412.936V124.429ZM415.599 121.993H425.196V124.618H419.001V127.663H424.377V130.309H419.001V133.375H425.196V136H415.599V121.993ZM432.751 136.294C431.687 136.294 430.763 136.217 429.979 136.063C429.195 135.923 428.467 135.678 427.795 135.328V132.094C428.425 132.598 429.139 132.99 429.937 133.27C430.749 133.536 431.54 133.669 432.31 133.669C433.626 133.669 434.284 133.172 434.284 132.178C434.284 131.744 434.074 131.408 433.654 131.17C433.234 130.918 432.555 130.638 431.617 130.33C431.183 130.19 430.917 130.099 430.819 130.057C429.811 129.721 429.013 129.266 428.425 128.692C427.851 128.118 427.564 127.264 427.564 126.13C427.564 125.332 427.76 124.597 428.152 123.925C428.544 123.239 429.146 122.693 429.958 122.287C430.77 121.881 431.771 121.678 432.961 121.678C433.787 121.678 434.494 121.755 435.082 121.909C435.684 122.049 436.321 122.28 436.993 122.602V125.857C436.405 125.409 435.775 125.038 435.103 124.744C434.431 124.45 433.752 124.303 433.066 124.303C432.45 124.303 431.953 124.429 431.575 124.681C431.211 124.919 431.029 125.269 431.029 125.731C431.029 126.095 431.141 126.396 431.365 126.634C431.589 126.858 431.862 127.033 432.184 127.159C432.52 127.285 433.052 127.46 433.78 127.684C434.648 127.936 435.362 128.216 435.922 128.524C436.482 128.832 436.93 129.245 437.266 129.763C437.602 130.281 437.77 130.946 437.77 131.758C437.77 132.612 437.574 133.382 437.182 134.068C436.79 134.754 436.209 135.3 435.439 135.706C434.683 136.098 433.787 136.294 432.751 136.294ZM438.676 136.504H450.142V138.289H438.676V136.504ZM459.863 132.976H454.634L453.626 136H450.413L455.705 121.993H459.422L464.378 136H460.892L459.863 132.976ZM459.023 130.477L457.238 125.185L455.474 130.477H459.023ZM466.151 121.993H475.685V124.618H469.553V127.957H474.845V130.624H469.553V136H466.151V121.993ZM481.067 124.618H477.14V121.993H488.459V124.618H484.469V136H481.067V124.618ZM490.452 121.993H500.049V124.618H493.854V127.663H499.23V130.309H493.854V133.375H500.049V136H490.452V121.993ZM511.175 136L508.403 131.17H506.303V136H502.901V121.993H509.726C511.336 121.993 512.582 122.364 513.464 123.106C514.346 123.848 514.787 124.954 514.787 126.424C514.787 127.334 514.535 128.181 514.031 128.965C513.527 129.735 512.827 130.253 511.931 130.519L515.501 136H511.175ZM509.159 128.671C510.461 128.671 511.112 127.978 511.112 126.592C511.112 125.948 510.958 125.458 510.65 125.122C510.342 124.786 509.894 124.618 509.306 124.618H506.303V128.671H509.159Z" fill="black"/>
<rect x="628" y="87" width="199" height="82" rx="6" fill="white" stroke="#606060" stroke-width="2" stroke-linecap="round" stroke-linejoin="round"/>
<path d="M637.693 109.993H647.227V112.618H641.095V115.957H646.387V118.624H641.095V124H637.693V109.993ZM649.669 109.993H653.071V124H649.669V109.993ZM668.269 109.993V124H665.707L659.176 115.474V124H656.047V109.993H658.945L665.14 118.33V109.993H668.269ZM679.475 120.976H674.246L673.238 124H670.025L675.317 109.993H679.034L683.99 124H680.504L679.475 120.976ZM678.635 118.477L676.85 113.185L675.086 118.477H678.635ZM685.763 109.993H689.165V121.333H695.255V124H685.763V109.993ZM697.411 109.993H700.813V124H697.411V109.993ZM714.436 112.429L707.716 121.354H714.436V124H703.432V121.522L710.32 112.66H703.537V109.993H714.436V112.429ZM717.099 109.993H726.696V112.618H720.501V115.663H725.877V118.309H720.501V121.375H726.696V124H717.099V109.993ZM734.251 124.294C733.187 124.294 732.263 124.217 731.479 124.063C730.695 123.923 729.967 123.678 729.295 123.328V120.094C729.925 120.598 730.639 120.99 731.437 121.27C732.249 121.536 733.04 121.669 733.81 121.669C735.126 121.669 735.784 121.172 735.784 120.178C735.784 119.744 735.574 119.408 735.154 119.17C734.734 118.918 734.055 118.638 733.117 118.33C732.683 118.19 732.417 118.099 732.319 118.057C731.311 117.721 730.513 117.266 729.925 116.692C729.351 116.118 729.064 115.264 729.064 114.13C729.064 113.332 729.26 112.597 729.652 111.925C730.044 111.239 730.646 110.693 731.458 110.287C732.27 109.881 733.271 109.678 734.461 109.678C735.287 109.678 735.994 109.755 736.582 109.909C737.184 110.049 737.821 110.28 738.493 110.602V113.857C737.905 113.409 737.275 113.038 736.603 112.744C735.931 112.45 735.252 112.303 734.566 112.303C733.95 112.303 733.453 112.429 733.075 112.681C732.711 112.919 732.529 113.269 732.529 113.731C732.529 114.095 732.641 114.396 732.865 114.634C733.089 114.858 733.362 115.033 733.684 115.159C734.02 115.285 734.552 115.46 735.28 115.684C736.148 115.936 736.862 116.216 737.422 116.524C737.982 116.832 738.43 117.245 738.766 117.763C739.102 118.281 739.27 118.946 739.27 119.758C739.27 120.612 739.074 121.382 738.682 122.068C738.29 122.754 737.709 123.3 736.939 123.706C736.183 124.098 735.287 124.294 734.251 124.294ZM740.176 124.504H751.642V126.289H740.176V124.504ZM761.363 120.976H756.134L755.126 124H751.913L757.205 109.993H760.922L765.878 124H762.392L761.363 120.976ZM760.523 118.477L758.738 113.185L756.974 118.477H760.523ZM767.651 109.993H777.185V112.618H771.053V115.957H776.345V118.624H771.053V124H767.651V109.993ZM782.567 112.618H778.64V109.993H789.959V112.618H785.969V124H782.567V112.618ZM791.952 109.993H801.549V112.618H795.354V115.663H800.73V118.309H795.354V121.375H801.549V124H791.952V109.993ZM812.675 124L809.903 119.17H807.803V124H804.401V109.993H811.226C812.836 109.993 814.082 110.364 814.964 111.106C815.846 111.848 816.287 112.954 816.287 114.424C816.287 115.334 816.035 116.181 815.531 116.965C815.027 117.735 814.327 118.253 813.431 118.519L817.001 124H812.675ZM810.659 116.671C811.961 116.671 812.612 115.978 812.612 114.592C812.612 113.948 812.458 113.458 812.15 113.122C811.842 112.786 811.394 112.618 810.806 112.618H807.803V116.671H810.659ZM647.715 151.373C647.449 150.883 647.127 150.204 646.749 149.336C646.385 148.482 646.063 147.481 645.783 146.333C645.517 145.185 645.384 143.939 645.384 142.595C645.384 141.237 645.517 139.984 645.783 138.836C646.063 137.688 646.385 136.687 646.749 135.833C647.127 134.965 647.449 134.286 647.715 133.796H649.311C649.185 134.006 648.989 134.377 648.723 134.909C648.471 135.427 648.198 136.071 647.904 136.841C647.624 137.611 647.386 138.486 647.19 139.466C646.994 140.432 646.896 141.475 646.896 142.595C646.896 143.701 646.994 144.744 647.19 145.724C647.386 146.69 647.624 147.565 647.904 148.349C648.198 149.119 648.471 149.763 648.723 150.281C648.989 150.799 649.185 151.163 649.311 151.373H647.715ZM656.697 149.315C656.193 149.315 655.661 149.238 655.101 149.084C654.541 148.944 654.009 148.678 653.505 148.286C653.015 147.88 652.609 147.306 652.287 146.564C651.979 145.808 651.825 144.828 651.825 143.624C651.825 142 652.217 140.719 653.001 139.781C653.799 138.829 655.003 138.353 656.613 138.353C656.921 138.353 657.285 138.395 657.705 138.479C658.125 138.563 658.538 138.668 658.944 138.794C659.35 138.92 659.686 139.053 659.952 139.193L659.427 139.718V134.09H660.939V147.194C660.939 147.586 660.799 147.922 660.519 148.202C660.253 148.468 659.903 148.685 659.469 148.853C659.035 149.007 658.573 149.119 658.083 149.189C657.593 149.273 657.131 149.315 656.697 149.315ZM656.718 147.929C657.446 147.929 658.076 147.845 658.608 147.677C659.154 147.509 659.427 147.299 659.427 147.047V140.474C658.993 140.222 658.524 140.04 658.02 139.928C657.53 139.802 657.061 139.739 656.613 139.739C655.857 139.739 655.241 139.907 654.765 140.243C654.303 140.565 653.96 141.02 653.736 141.608C653.526 142.182 653.421 142.854 653.421 143.624C653.421 144.38 653.505 145.087 653.673 145.745C653.841 146.389 654.163 146.914 654.639 147.32C655.115 147.726 655.808 147.929 656.718 147.929ZM668.632 149.315C667.638 149.315 666.777 149.112 666.049 148.706C665.321 148.286 664.761 147.663 664.369 146.837C663.977 146.011 663.781 144.982 663.781 143.75C663.781 141.944 664.187 140.593 664.999 139.697C665.825 138.787 666.952 138.332 668.38 138.332C669.5 138.332 670.396 138.584 671.068 139.088C671.754 139.592 672.244 140.271 672.538 141.125C672.832 141.979 672.972 142.945 672.958 144.023H664.537L664.642 142.637H671.971L671.383 142.847C671.341 141.797 671.075 141.013 670.585 140.495C670.109 139.977 669.374 139.718 668.38 139.718C667.694 139.718 667.12 139.844 666.658 140.096C666.21 140.348 665.874 140.789 665.65 141.419C665.426 142.035 665.314 142.903 665.314 144.023C665.314 145.297 665.608 146.27 666.196 146.942C666.798 147.6 667.638 147.929 668.716 147.929C669.234 147.929 669.71 147.894 670.144 147.824C670.578 147.74 670.977 147.628 671.341 147.488C671.705 147.348 672.027 147.194 672.307 147.026V148.58C671.803 148.818 671.243 149 670.627 149.126C670.025 149.252 669.36 149.315 668.632 149.315ZM679.402 149.315C678.94 149.315 678.471 149.266 677.995 149.168C677.533 149.07 677.099 148.902 676.693 148.664C676.301 148.426 675.979 148.104 675.727 147.698C675.489 147.278 675.37 146.753 675.37 146.123C675.37 145.255 675.531 144.562 675.853 144.044C676.189 143.512 676.644 143.134 677.218 142.91C677.806 142.672 678.478 142.553 679.234 142.553C679.808 142.553 680.305 142.588 680.725 142.658C681.145 142.728 681.516 142.833 681.838 142.973C682.174 143.099 682.475 143.246 682.741 143.414L683.035 144.8C682.713 144.562 682.244 144.359 681.628 144.191C681.026 144.009 680.361 143.918 679.633 143.918C678.751 143.918 678.072 144.086 677.596 144.422C677.12 144.758 676.882 145.248 676.882 145.892C676.882 146.41 677.022 146.823 677.302 147.131C677.596 147.439 677.96 147.656 678.394 147.782C678.842 147.908 679.297 147.971 679.759 147.971C680.669 147.971 681.355 147.908 681.817 147.782C682.293 147.642 682.531 147.334 682.531 146.858V142.049C682.531 141.237 682.293 140.642 681.817 140.264C681.341 139.886 680.662 139.697 679.78 139.697C679.22 139.697 678.625 139.781 677.995 139.949C677.379 140.103 676.847 140.355 676.399 140.705V139.193C676.833 138.913 677.414 138.703 678.142 138.563C678.87 138.409 679.577 138.332 680.263 138.332C680.725 138.332 681.152 138.381 681.544 138.479C681.936 138.563 682.286 138.696 682.594 138.878C682.902 139.046 683.161 139.27 683.371 139.55C683.595 139.816 683.763 140.131 683.875 140.495C684.001 140.845 684.064 141.244 684.064 141.692V146.774C684.064 147.516 683.84 148.069 683.392 148.433C682.958 148.797 682.384 149.035 681.67 149.147C680.97 149.259 680.214 149.315 679.402 149.315ZM691.765 149.315C691.261 149.315 690.729 149.238 690.169 149.084C689.609 148.944 689.077 148.678 688.573 148.286C688.083 147.88 687.677 147.306 687.355 146.564C687.047 145.808 686.893 144.828 686.893 143.624C686.893 142 687.285 140.719 688.069 139.781C688.867 138.829 690.071 138.353 691.681 138.353C691.989 138.353 692.353 138.395 692.773 138.479C693.193 138.563 693.606 138.668 694.012 138.794C694.418 138.92 694.754 139.053 695.02 139.193L694.495 139.718V134.09H696.007V147.194C696.007 147.586 695.867 147.922 695.587 148.202C695.321 148.468 694.971 148.685 694.537 148.853C694.103 149.007 693.641 149.119 693.151 149.189C692.661 149.273 692.199 149.315 691.765 149.315ZM691.786 147.929C692.514 147.929 693.144 147.845 693.676 147.677C694.222 147.509 694.495 147.299 694.495 147.047V140.474C694.061 140.222 693.592 140.04 693.088 139.928C692.598 139.802 692.129 139.739 691.681 139.739C690.925 139.739 690.309 139.907 689.833 140.243C689.371 140.565 689.028 141.02 688.804 141.608C688.594 142.182 688.489 142.854 688.489 143.624C688.489 144.38 688.573 145.087 688.741 145.745C688.909 146.389 689.231 146.914 689.707 147.32C690.183 147.726 690.876 147.929 691.786 147.929ZM700.886 149H699.374V134.531H700.886V149ZM704.339 149V138.521H705.851V149H704.339ZM704.255 136.652V134.993H705.935V136.652H704.255ZM709.3 139.361C709.636 139.193 709.979 139.046 710.329 138.92C710.693 138.78 711.057 138.668 711.421 138.584C711.799 138.5 712.177 138.437 712.555 138.395C712.947 138.353 713.339 138.332 713.731 138.332C714.753 138.332 715.565 138.486 716.167 138.794C716.769 139.088 717.203 139.522 717.469 140.096C717.749 140.67 717.889 141.363 717.889 142.175V149H716.377V142.175C716.377 141.923 716.342 141.657 716.272 141.377C716.216 141.097 716.097 140.831 715.915 140.579C715.733 140.313 715.453 140.103 715.075 139.949C714.697 139.781 714.193 139.697 713.563 139.697C713.129 139.697 712.681 139.732 712.219 139.802C711.757 139.872 711.288 139.977 710.812 140.117V149H709.3V139.361ZM725.582 149.315C724.588 149.315 723.727 149.112 722.999 148.706C722.271 148.286 721.711 147.663 721.319 146.837C720.927 146.011 720.731 144.982 720.731 143.75C720.731 141.944 721.137 140.593 721.949 139.697C722.775 138.787 723.902 138.332 725.33 138.332C726.45 138.332 727.346 138.584 728.018 139.088C728.704 139.592 729.194 140.271 729.488 141.125C729.782 141.979 729.922 142.945 729.908 144.023H721.487L721.592 142.637H728.921L728.333 142.847C728.291 141.797 728.025 141.013 727.535 140.495C727.059 139.977 726.324 139.718 725.33 139.718C724.644 139.718 724.07 139.844 723.608 140.096C723.16 140.348 722.824 140.789 722.6 141.419C722.376 142.035 722.264 142.903 722.264 144.023C722.264 145.297 722.558 146.27 723.146 146.942C723.748 147.6 724.588 147.929 725.666 147.929C726.184 147.929 726.66 147.894 727.094 147.824C727.528 147.74 727.927 147.628 728.291 147.488C728.655 147.348 728.977 147.194 729.257 147.026V148.58C728.753 148.818 728.193 149 727.577 149.126C726.975 149.252 726.31 149.315 725.582 149.315ZM742.947 149.294C742.639 149.294 742.289 149.252 741.897 149.168C741.519 149.084 741.148 148.979 740.784 148.853C740.42 148.727 740.098 148.594 739.818 148.454L740.343 147.929V153.557H738.831V140.411C738.831 139.977 738.964 139.627 739.23 139.361C739.51 139.095 739.867 138.892 740.301 138.752C740.735 138.598 741.197 138.493 741.687 138.437C742.177 138.367 742.639 138.332 743.073 138.332C743.913 138.332 744.704 138.507 745.446 138.857C746.188 139.207 746.79 139.802 747.252 140.642C747.714 141.468 747.945 142.595 747.945 144.023C747.945 145.101 747.749 146.039 747.357 146.837C746.979 147.621 746.419 148.23 745.677 148.664C744.935 149.084 744.025 149.294 742.947 149.294ZM742.947 147.908C743.717 147.908 744.347 147.747 744.837 147.425C745.341 147.089 745.719 146.627 745.971 146.039C746.223 145.451 746.349 144.779 746.349 144.023C746.349 143.267 746.265 142.56 746.097 141.902C745.929 141.244 745.607 140.719 745.131 140.327C744.655 139.921 743.962 139.718 743.052 139.718C742.324 139.718 741.687 139.802 741.141 139.97C740.609 140.138 740.343 140.376 740.343 140.684V147.173C740.777 147.425 741.211 147.614 741.645 147.74C742.079 147.852 742.513 147.908 742.947 147.908ZM754.399 149.315C753.937 149.315 753.468 149.266 752.992 149.168C752.53 149.07 752.096 148.902 751.69 148.664C751.298 148.426 750.976 148.104 750.724 147.698C750.486 147.278 750.367 146.753 750.367 146.123C750.367 145.255 750.528 144.562 750.85 144.044C751.186 143.512 751.641 143.134 752.215 142.91C752.803 142.672 753.475 142.553 754.231 142.553C754.805 142.553 755.302 142.588 755.722 142.658C756.142 142.728 756.513 142.833 756.835 142.973C757.171 143.099 757.472 143.246 757.738 143.414L758.032 144.8C757.71 144.562 757.241 144.359 756.625 144.191C756.023 144.009 755.358 143.918 754.63 143.918C753.748 143.918 753.069 144.086 752.593 144.422C752.117 144.758 751.879 145.248 751.879 145.892C751.879 146.41 752.019 146.823 752.299 147.131C752.593 147.439 752.957 147.656 753.391 147.782C753.839 147.908 754.294 147.971 754.756 147.971C755.666 147.971 756.352 147.908 756.814 147.782C757.29 147.642 757.528 147.334 757.528 146.858V142.049C757.528 141.237 757.29 140.642 756.814 140.264C756.338 139.886 755.659 139.697 754.777 139.697C754.217 139.697 753.622 139.781 752.992 139.949C752.376 140.103 751.844 140.355 751.396 140.705V139.193C751.83 138.913 752.411 138.703 753.139 138.563C753.867 138.409 754.574 138.332 755.26 138.332C755.722 138.332 756.149 138.381 756.541 138.479C756.933 138.563 757.283 138.696 757.591 138.878C757.899 139.046 758.158 139.27 758.368 139.55C758.592 139.816 758.76 140.131 758.872 140.495C758.998 140.845 759.061 141.244 759.061 141.692V146.774C759.061 147.516 758.837 148.069 758.389 148.433C757.955 148.797 757.381 149.035 756.667 149.147C755.967 149.259 755.211 149.315 754.399 149.315ZM765.376 149.315C764.62 149.315 763.983 149.238 763.465 149.084C762.961 148.93 762.436 148.713 761.89 148.433V146.837C762.324 147.075 762.709 147.278 763.045 147.446C763.381 147.614 763.724 147.74 764.074 147.824C764.424 147.894 764.823 147.929 765.271 147.929C765.971 147.929 766.538 147.775 766.972 147.467C767.42 147.159 767.644 146.76 767.644 146.27C767.644 145.878 767.532 145.577 767.308 145.367C767.098 145.157 766.825 144.982 766.489 144.842C766.153 144.702 765.803 144.555 765.439 144.401C765.033 144.289 764.62 144.17 764.2 144.044C763.794 143.904 763.416 143.729 763.066 143.519C762.73 143.295 762.457 143.015 762.247 142.679C762.037 142.329 761.932 141.881 761.932 141.335C761.932 140.803 762.037 140.348 762.247 139.97C762.471 139.592 762.758 139.284 763.108 139.046C763.458 138.794 763.85 138.612 764.284 138.5C764.718 138.388 765.152 138.332 765.586 138.332C766.216 138.332 766.755 138.416 767.203 138.584C767.651 138.752 768.113 138.941 768.589 139.151V140.663C768.057 140.383 767.581 140.159 767.161 139.991C766.741 139.809 766.244 139.718 765.67 139.718C765.096 139.718 764.578 139.837 764.116 140.075C763.668 140.299 763.444 140.649 763.444 141.125C763.444 141.517 763.556 141.832 763.78 142.07C764.018 142.294 764.326 142.476 764.704 142.616C765.082 142.742 765.488 142.868 765.922 142.994C766.272 143.106 766.636 143.232 767.014 143.372C767.392 143.498 767.742 143.673 768.064 143.897C768.386 144.107 768.645 144.387 768.841 144.737C769.051 145.087 769.156 145.535 769.156 146.081C769.156 146.823 768.967 147.439 768.589 147.929C768.211 148.405 767.728 148.755 767.14 148.979C766.566 149.203 765.978 149.315 765.376 149.315ZM774.954 149.315C774.198 149.315 773.561 149.238 773.043 149.084C772.539 148.93 772.014 148.713 771.468 148.433V146.837C771.902 147.075 772.287 147.278 772.623 147.446C772.959 147.614 773.302 147.74 773.652 147.824C774.002 147.894 774.401 147.929 774.849 147.929C775.549 147.929 776.116 147.775 776.55 147.467C776.998 147.159 777.222 146.76 777.222 146.27C777.222 145.878 777.11 145.577 776.886 145.367C776.676 145.157 776.403 144.982 776.067 144.842C775.731 144.702 775.381 144.555 775.017 144.401C774.611 144.289 774.198 144.17 773.778 144.044C773.372 143.904 772.994 143.729 772.644 143.519C772.308 143.295 772.035 143.015 771.825 142.679C771.615 142.329 771.51 141.881 771.51 141.335C771.51 140.803 771.615 140.348 771.825 139.97C772.049 139.592 772.336 139.284 772.686 139.046C773.036 138.794 773.428 138.612 773.862 138.5C774.296 138.388 774.73 138.332 775.164 138.332C775.794 138.332 776.333 138.416 776.781 138.584C777.229 138.752 777.691 138.941 778.167 139.151V140.663C777.635 140.383 777.159 140.159 776.739 139.991C776.319 139.809 775.822 139.718 775.248 139.718C774.674 139.718 774.156 139.837 773.694 140.075C773.246 140.299 773.022 140.649 773.022 141.125C773.022 141.517 773.134 141.832 773.358 142.07C773.596 142.294 773.904 142.476 774.282 142.616C774.66 142.742 775.066 142.868 775.5 142.994C775.85 143.106 776.214 143.232 776.592 143.372C776.97 143.498 777.32 143.673 777.642 143.897C777.964 144.107 778.223 144.387 778.419 144.737C778.629 145.087 778.734 145.535 778.734 146.081C778.734 146.823 778.545 147.439 778.167 147.929C777.789 148.405 777.306 148.755 776.718 148.979C776.144 149.203 775.556 149.315 774.954 149.315ZM785.896 149.315C784.902 149.315 784.041 149.112 783.313 148.706C782.585 148.286 782.025 147.663 781.633 146.837C781.241 146.011 781.045 144.982 781.045 143.75C781.045 141.944 781.451 140.593 782.263 139.697C783.089 138.787 784.216 138.332 785.644 138.332C786.764 138.332 787.66 138.584 788.332 139.088C789.018 139.592 789.508 140.271 789.802 141.125C790.096 141.979 790.236 142.945 790.222 144.023H781.801L781.906 142.637H789.235L788.647 142.847C788.605 141.797 788.339 141.013 787.849 140.495C787.373 139.977 786.638 139.718 785.644 139.718C784.958 139.718 784.384 139.844 783.922 140.096C783.474 140.348 783.138 140.789 782.914 141.419C782.69 142.035 782.578 142.903 782.578 144.023C782.578 145.297 782.872 146.27 783.46 146.942C784.062 147.6 784.902 147.929 785.98 147.929C786.498 147.929 786.974 147.894 787.408 147.824C787.842 147.74 788.241 147.628 788.605 147.488C788.969 147.348 789.291 147.194 789.571 147.026V148.58C789.067 148.818 788.507 149 787.891 149.126C787.289 149.252 786.624 149.315 785.896 149.315ZM797.401 149.315C796.897 149.315 796.365 149.238 795.805 149.084C795.245 148.944 794.713 148.678 794.209 148.286C793.719 147.88 793.313 147.306 792.991 146.564C792.683 145.808 792.529 144.828 792.529 143.624C792.529 142 792.921 140.719 793.705 139.781C794.503 138.829 795.707 138.353 797.317 138.353C797.625 138.353 797.989 138.395 798.409 138.479C798.829 138.563 799.242 138.668 799.648 138.794C800.054 138.92 800.39 139.053 800.656 139.193L800.131 139.718V134.09H801.643V147.194C801.643 147.586 801.503 147.922 801.223 148.202C800.957 148.468 800.607 148.685 800.173 148.853C799.739 149.007 799.277 149.119 798.787 149.189C798.297 149.273 797.835 149.315 797.401 149.315ZM797.422 147.929C798.15 147.929 798.78 147.845 799.312 147.677C799.858 147.509 800.131 147.299 800.131 147.047V140.474C799.697 140.222 799.228 140.04 798.724 139.928C798.234 139.802 797.765 139.739 797.317 139.739C796.561 139.739 795.945 139.907 795.469 140.243C795.007 140.565 794.664 141.02 794.44 141.608C794.23 142.182 794.125 142.854 794.125 143.624C794.125 144.38 794.209 145.087 794.377 145.745C794.545 146.389 794.867 146.914 795.343 147.32C795.819 147.726 796.512 147.929 797.422 147.929ZM804.695 151.373C804.821 151.163 805.017 150.792 805.283 150.26C805.549 149.742 805.822 149.098 806.102 148.328C806.382 147.558 806.62 146.683 806.816 145.703C807.026 144.723 807.131 143.68 807.131 142.574C807.131 141.468 807.026 140.432 806.816 139.466C806.62 138.486 806.382 137.611 806.102 136.841C805.822 136.057 805.549 135.406 805.283 134.888C805.017 134.37 804.821 134.006 804.695 133.796H806.312C806.592 134.286 806.914 134.965 807.278 135.833C807.642 136.687 807.957 137.688 808.223 138.836C808.503 139.984 808.643 141.23 808.643 142.574C808.643 143.918 808.503 145.171 808.223 146.333C807.957 147.481 807.642 148.482 807.278 149.336C806.914 150.204 806.592 150.883 806.312 151.373H804.695Z" fill="black"/>
<path d="M320.061 129.061C320.646 128.475 320.646 127.525 320.061 126.939L310.515 117.393C309.929 116.808 308.979 116.808 308.393 117.393C307.808 117.979 307.808 118.929 308.393 119.515L316.879 128L308.393 136.485C307.808 137.071 307.808 138.021 308.393 138.607C308.979 139.192 309.929 139.192 310.515 138.607L320.061 129.061ZM223 129.5L319 129.5V126.5L223 126.5V129.5Z" fill="#606060"/>
<path d="M928.061 130.061C928.646 129.475 928.646 128.525 928.061 127.939L918.515 118.393C917.929 117.808 916.979 117.808 916.393 118.393C915.808 118.979 915.808 119.929 916.393 120.515L924.879 129L916.393 137.485C915.808 138.071 915.808 139.021 916.393 139.607C916.979 140.192 917.929 140.192 918.515 139.607L928.061 130.061ZM831 130.5L927 130.5V127.5L831 127.5V130.5Z" fill="#606060"/>
<path d="M206.366 23.326V38H203.682L196.84 29.068V38H193.562V23.326H196.598L203.088 32.06V23.326H206.366ZM216.016 38.308C213.772 38.308 212.019 37.67 210.758 36.394C209.497 35.118 208.866 33.2113 208.866 30.674C208.866 28.1807 209.482 26.2887 210.714 24.998C211.961 23.6927 213.728 23.04 216.016 23.04C218.26 23.04 220.013 23.678 221.274 24.954C222.55 26.2153 223.188 28.1147 223.188 30.652C223.188 33.1453 222.565 35.0447 221.318 36.35C220.086 37.6553 218.319 38.308 216.016 38.308ZM216.016 35.382C217.175 35.382 218.047 35.0153 218.634 34.282C219.221 33.5487 219.514 32.3387 219.514 30.652C219.514 28.9653 219.221 27.7627 218.634 27.044C218.062 26.3107 217.189 25.944 216.016 25.944C214.857 25.944 213.985 26.3107 213.398 27.044C212.826 27.7773 212.54 28.9947 212.54 30.696C212.54 32.368 212.826 33.5707 213.398 34.304C213.985 35.0227 214.857 35.382 216.016 35.382ZM228.675 26.076H224.561V23.326H236.419V26.076H232.239V38H228.675V26.076ZM244.587 23.326H254.575V26.076H248.151V29.574H253.695V32.368H248.151V38H244.587V23.326ZM257.134 23.326H260.698V38H257.134V23.326ZM276.62 23.326V38H273.936L267.094 29.068V38H263.816V23.326H266.852L273.342 32.06V23.326H276.62ZM288.36 34.832H282.882L281.826 38H278.46L284.004 23.326H287.898L293.09 38H289.438L288.36 34.832ZM287.48 32.214L285.61 26.67L283.762 32.214H287.48ZM294.947 23.326H298.511V35.206H304.891V38H294.947V23.326ZM307.15 23.326H310.714V38H307.15V23.326ZM324.986 25.878L317.946 35.228H324.986V38H313.458V35.404L320.674 26.12H313.568V23.326H324.986V25.878ZM327.775 23.326H337.829V26.076H331.339V29.266H336.971V32.038H331.339V35.25H337.829V38H327.775V23.326ZM340.816 23.326H346.712C349.176 23.326 351.002 23.942 352.19 25.174C353.378 26.3913 353.972 28.2247 353.972 30.674C353.972 33.1087 353.378 34.942 352.19 36.174C351.002 37.3913 349.176 38 346.712 38H340.816V23.326ZM346.294 35.25C347.629 35.25 348.633 34.876 349.308 34.128C349.983 33.38 350.32 32.2287 350.32 30.674C350.32 29.09 349.983 27.9313 349.308 27.198C348.633 26.45 347.629 26.076 346.294 26.076H344.38V35.25H346.294Z" fill="black"/>
<path d="M812.562 28.326H822.55V31.076H816.126V34.574H821.67V37.368H816.126V43H812.562V28.326ZM825.109 28.326H828.673V43H825.109V28.326ZM844.595 28.326V43H841.911L835.069 34.068V43H831.791V28.326H834.827L841.317 37.06V28.326H844.595ZM856.334 39.832H850.856L849.8 43H846.434L851.978 28.326H855.872L861.064 43H857.412L856.334 39.832ZM855.454 37.214L853.584 31.67L851.736 37.214H855.454ZM862.921 28.326H866.485V40.206H872.865V43H862.921V28.326ZM875.125 28.326H878.689V43H875.125V28.326ZM892.96 30.878L885.92 40.228H892.96V43H881.432V40.404L888.648 31.12H881.542V28.326H892.96V30.878ZM895.75 28.326H905.803V31.076H899.314V34.266H904.946V37.038H899.314V40.25H905.803V43H895.75V28.326ZM908.791 28.326H914.687C917.151 28.326 918.977 28.942 920.165 30.174C921.353 31.3913 921.947 33.2247 921.947 35.674C921.947 38.1087 921.353 39.942 920.165 41.174C918.977 42.3913 917.151 43 914.687 43H908.791V28.326ZM914.269 40.25C915.603 40.25 916.608 39.876 917.283 39.128C917.957 38.38 918.295 37.2287 918.295 35.674C918.295 34.09 917.957 32.9313 917.283 32.198C916.608 31.45 915.603 31.076 914.269 31.076H912.355V40.25H914.269Z" fill="black"/>
<path d="M623.061 129.061C623.646 128.475 623.646 127.525 623.061 126.939L613.515 117.393C612.929 116.808 611.979 116.808 611.393 117.393C610.808 117.979 610.808 118.929 611.393 119.515L619.879 128L611.393 136.485C610.808 137.071 610.808 138.021 611.393 138.607C611.979 139.192 612.929 139.192 613.515 138.607L623.061 129.061ZM526 129.5L622 129.5V126.5L526 126.5V129.5Z" fill="#606060"/>
<rect x="930" y="87" width="199" height="82" rx="6" fill="white" stroke="#606060" stroke-width="2" stroke-linecap="round" stroke-linejoin="round"/>
<path d="M973.579 109.993H983.176V112.618H976.981V115.663H982.357V118.309H976.981V121.375H983.176V124H973.579V109.993ZM994.344 124L991.32 119.569L988.632 124H984.957L989.598 117.028L984.789 109.993H989.01L992.055 114.445L994.659 109.993H998.418L993.819 117.028L998.565 124H994.344ZM1003.68 124H1000.28V109.993H1006.58C1008.26 109.993 1009.56 110.371 1010.47 111.127C1011.39 111.883 1011.85 113.024 1011.85 114.55C1011.85 116.104 1011.38 117.301 1010.44 118.141C1009.52 118.981 1008.23 119.401 1006.58 119.401H1003.68V124ZM1006.16 116.776C1006.85 116.776 1007.35 116.601 1007.67 116.251C1008.01 115.887 1008.18 115.397 1008.18 114.781C1008.18 113.353 1007.5 112.639 1006.16 112.639H1003.68V116.776H1006.16ZM1014.23 109.993H1017.63V121.333H1023.72V124H1014.23V109.993ZM1025.87 109.993H1029.28V124H1025.87V109.993ZM1038.45 124.273C1033.86 124.273 1031.56 121.851 1031.56 117.007C1031.56 112.121 1033.86 109.678 1038.45 109.678C1039.86 109.678 1041.35 110.021 1042.9 110.707V113.668C1041.56 112.772 1040.23 112.324 1038.91 112.324C1037.62 112.324 1036.66 112.688 1036.01 113.416C1035.38 114.13 1035.07 115.327 1035.07 117.007C1035.07 118.687 1035.39 119.877 1036.03 120.577C1036.69 121.277 1037.7 121.627 1039.06 121.627C1039.62 121.627 1040.23 121.522 1040.88 121.312C1041.54 121.102 1042.21 120.773 1042.9 120.325V123.286C1042.33 123.58 1041.63 123.818 1040.8 124C1039.97 124.182 1039.19 124.273 1038.45 124.273ZM1045.48 109.993H1048.88V124H1045.48V109.993ZM1054.8 112.618H1050.87V109.993H1062.19V112.618H1058.2V124H1054.8V112.618ZM1064.18 109.993H1067.58V121.333H1073.67V124H1064.18V109.993ZM1081.53 117.994V124H1078.13V117.931L1072.81 109.993H1076.99L1080.16 115.306L1083.04 109.993H1086.42L1081.53 117.994ZM977.599 134.993H987.133V137.618H981.001V140.957H986.293V143.624H981.001V149H977.599V134.993ZM989.575 134.993H992.977V149H989.575V134.993ZM1008.18 134.993V149H1005.61L999.082 140.474V149H995.953V134.993H998.851L1005.05 143.33V134.993H1008.18ZM1019.38 145.976H1014.15L1013.14 149H1009.93L1015.22 134.993H1018.94L1023.9 149H1020.41L1019.38 145.976ZM1018.54 143.477L1016.76 138.185L1014.99 143.477H1018.54ZM1025.67 134.993H1029.07V146.333H1035.16V149H1025.67V134.993ZM1037.32 134.993H1040.72V149H1037.32V134.993ZM1054.34 137.429L1047.62 146.354H1054.34V149H1043.34V146.522L1050.23 137.66H1043.44V134.993H1054.34V137.429ZM1057.01 134.993H1066.6V137.618H1060.41V140.663H1065.78V143.309H1060.41V146.375H1066.6V149H1057.01V134.993ZM1069.45 134.993H1075.08C1077.43 134.993 1079.18 135.581 1080.31 136.757C1081.44 137.919 1082.01 139.669 1082.01 142.007C1082.01 144.331 1081.44 146.081 1080.31 147.257C1079.18 148.419 1077.43 149 1075.08 149H1069.45V134.993ZM1074.68 146.375C1075.96 146.375 1076.92 146.018 1077.56 145.304C1078.2 144.59 1078.53 143.491 1078.53 142.007C1078.53 140.495 1078.2 139.389 1077.56 138.689C1076.92 137.975 1075.96 137.618 1074.68 137.618H1072.86V146.375H1074.68Z" fill="black"/>
</svg>
