<?xml version="1.0" encoding="UTF-8"?>
<svg width="132px" height="135px" viewBox="0 0 132 135" version="1.1" xmlns="http://www.w3.org/2000/svg" xmlns:xlink="http://www.w3.org/1999/xlink">
    <!-- Generator: Sketch 52.4 (67378) - http://www.bohemiancoding.com/sketch -->
    <title>TicTacToe</title>
    <desc>Created with Sketch.</desc>
    <g id="UI" stroke="none" stroke-width="1" fill="none" fill-rule="evenodd">
        <g id="Welcome" transform="translate(-93.000000, -217.000000)">
            <g id="TicTacToe" transform="translate(83.000000, 208.000000)">
                <path d="M10.5979437,16.7093239 L10.5979437,10.5979437 L40.3289683,10.5979437 L40.3289683,16.7093239 L10.5979437,16.7093239 Z M22.4080352,40.3289683 L22.4080352,22.4080352 L28.5194155,22.4080352 L28.5194155,40.3289683 L22.4080352,40.3289683 Z M10.5979437,67.6367746 L10.5979437,61.5253944 L40.3289683,61.5253944 L40.3289683,67.6367746 L10.5979437,67.6367746 Z M22.4080352,91.256419 L22.4080352,73.3349472 L28.5194155,73.3349472 L28.5194155,91.256419 L22.4080352,91.256419 Z M10.5979437,118.564225 L10.5979437,112.452845 L40.3289683,112.452845 L40.3289683,118.564225 L10.5979437,118.564225 Z M22.4080352,142.18387 L22.4080352,124.262398 L28.5194155,124.262398 L28.5194155,142.18387 L22.4080352,142.18387 Z" id="Combined-Shape" fill="#4DCDEF"></path>
                <path d="M73.3349472,40.3289683 L73.3349472,10.5979437 L79.4463275,10.5979437 L79.4463275,40.3289683 L73.3349472,40.3289683 Z M129.514931,130.373617 L113.47148,130.373617 L113.47148,112.452683 L141.165019,112.452683 L141.165019,118.564064 L119.582322,118.564064 L119.582322,124.262236 L129.514931,124.262236 L129.514931,130.373617 Z M113.471588,142.18387 L113.471588,136.072489 L141.165127,136.072489 L141.165127,142.18387 L113.471588,142.18387 Z M129.182425,41.2512782 C124.965767,41.2512782 121.000696,39.6092218 118.018813,36.627338 C111.864334,30.4717817 111.864334,20.455669 118.018813,14.3006514 C121.000696,11.3182289 124.965767,9.67617254 129.182425,9.67617254 C133.399623,9.67617254 137.364693,11.3182289 140.346038,14.3001127 L136.024327,18.6218239 C134.197485,16.7939049 131.767263,15.7875528 129.182425,15.7875528 C126.598126,15.7875528 124.167904,16.7939049 122.340524,18.6218239 C118.56832,22.3945669 118.567781,28.5334225 122.340524,32.3056268 C124.167904,34.1335458 126.598126,35.1398979 129.182425,35.1398979 C131.767263,35.1398979 134.196946,34.1335458 136.024327,32.3061655 L140.346038,36.6267993 C137.364693,39.6086831 133.399623,41.2512782 129.182425,41.2512782 Z M129.182425,92.1783518 C124.965767,92.1783518 121.000696,90.5362954 118.018813,87.5544116 C111.864334,81.3983165 111.864334,71.3827426 118.018813,65.227725 C121.000696,62.2453025 124.965767,60.6032461 129.182425,60.6032461 C133.399623,60.6032461 137.364693,62.2458412 140.346038,65.227725 L136.024327,69.5488975 C134.196946,67.7215173 131.767263,66.7146264 129.182425,66.7146264 C126.598126,66.7146264 124.167904,67.7215173 122.340524,69.5488975 C118.567781,73.3216405 118.56832,79.4604961 122.340524,83.2332391 C124.167904,85.0606194 126.598126,86.0669715 129.182425,86.0669715 C131.767263,86.0669715 134.196946,85.0606194 136.024327,83.2332391 L140.346038,87.5544116 C137.364693,90.5362954 133.399623,92.1783518 129.182425,92.1783518 Z M76.3908528,117.605551 C71.0353141,117.605551 66.6785852,121.96228 66.6785852,127.317819 C66.6785852,132.673896 71.0353141,137.030625 76.3908528,137.030625 C81.7463915,137.030625 86.1031204,132.673896 86.1031204,127.317819 C86.1031204,121.96228 81.7463915,117.605551 76.3908528,117.605551 Z M76.3908528,143.069276 C67.7054092,143.069276 60.6399338,136.002724 60.6399338,127.317819 C60.6399338,118.632914 67.7054092,111.5669 76.3908528,111.5669 C85.0757577,111.5669 92.1417718,118.632914 92.1417718,127.317819 C92.1417718,136.002724 85.0757577,143.069276 76.3908528,143.069276 Z M76.4442412,69.5194827 L66.330618,91.037532 L59.5776074,91.037532 L73.3454525,61.7455743 L79.448213,61.7455743 L93.7591004,91.037532 L86.9576039,91.037532 L76.4442412,69.5194827 Z" id="Combined-Shape" fill="#FFFFFF"></path>
            </g>
        </g>
    </g>
</svg>