<?xml version="1.0" encoding="utf-8"?>
<!-- Generator: Adobe Illustrator 21.0.0, SVG Export Plug-In . SVG Version: 6.00 Build 0)  -->
<svg version="1.1" id="Layer_1" xmlns="http://www.w3.org/2000/svg" xmlns:xlink="http://www.w3.org/1999/xlink" x="0px" y="0px"
	 viewBox="0 0 207.6 207.8" style="enable-background:new 0 0 207.6 207.8;" xml:space="preserve">
<style type="text/css">
	.st0{fill:#232323;stroke:#232323;stroke-width:4;stroke-linecap:round;stroke-linejoin:round;stroke-miterlimit:10;}
	.st1{fill:#FFFFFF;stroke:#232323;stroke-width:3;stroke-miterlimit:10;}
	.st2{fill:none;stroke:#FFFFFF;stroke-width:13;stroke-linecap:round;stroke-miterlimit:10;}
</style>
<path class="st0" d="M6,2h195.6c2.2,0,4,1.8,4,4v195.7c0,2.2-1.8,4-4,4H6c-2.2,0-4-1.8-4-4V6C2,3.8,3.8,2,6,2z"/>
<path class="st1" d="M127.2,73.5l18.9,28.6c0.7,0.9,0.7,2.2,0,3.2l-18.9,28.6c-1.1,1.7-0.2,3.9,1.8,4.5l9.4,3.2
	c1.7,0.6,3.5,0,4.4-1.4l22.7-35c0.7-0.9,0.7-2.2,0-3.1l-22.7-35c-0.9-1.3-2.7-1.9-4.4-1.4L129,69C127,69.8,126.1,71.9,127.2,73.5z"
	/>
<path class="st2" d="M112.5,73.8v59.8c0,0.1-0.1,0.2-0.2,0.2H55.2c-0.1,0-0.2-0.1-0.2-0.2V73.8c0-0.1,0.1-0.2,0.2-0.2h57.1
	C112.5,73.6,112.5,73.6,112.5,73.8z"/>
</svg>
